<?xml version="1.0" encoding="utf-8"?>
<!-- Generator: Adobe Illustrator 18.0.0, SVG Export Plug-In . SVG Version: 6.00 Build 0)  -->
<!DOCTYPE svg PUBLIC "-//W3C//DTD SVG 1.1//EN" "http://www.w3.org/Graphics/SVG/1.1/DTD/svg11.dtd">
<svg version="1.1" id="Layer_1" xmlns="http://www.w3.org/2000/svg" xmlns:xlink="http://www.w3.org/1999/xlink" x="0px" y="0px"
	 viewBox="0 0 80.1 99.2" enable-background="new 0 0 80.1 99.2" xml:space="preserve">
<g>
	<g>
		<rect x="2.2" y="2.2" fill="#B54724" width="77.9" height="77.9"/>
		<g>
			<rect x="2.2" y="2.2" fill="#B54724" width="77.9" height="77.9"/>
			<polygon fill="#B54724" points="60.7,79.7 21.7,79.7 41.2,99.2 41.2,99.2 			"/>
			<text transform="matrix(1 0 0 1 21.7231 62.2783)" fill="#B54724" font-family="'RobotoSlab-Bold'" font-size="61.8822">B</text>
		</g>
		<text transform="matrix(1 0 0 1 21.7231 62.2783)" fill="#B54724" font-family="'RobotoSlab-Bold'" font-size="61.8822">B</text>
	</g>
	<g>
		<rect x="0" y="0" fill="#C04B41" width="77.9" height="77.9"/>
		<g>
			<rect x="0" y="0" fill="#E35928" width="77.9" height="77.9"/>
			<polygon fill="#E35928" points="58.4,77.5 19.5,77.5 38.9,97 38.9,97 			"/>
			<g>
				<path fill="#F6F7F1" d="M40.7,16c5.2,0,9.2,1,12.1,3s4.4,5,4.4,9c0,2-0.5,3.9-1.6,5.5c-1.1,1.6-2.6,2.8-4.7,3.6
					c2.6,0.6,4.6,1.8,5.9,3.6c1.3,1.9,2,4,2,6.4c0,4.2-1.4,7.4-4.2,9.6c-2.8,2.2-6.7,3.2-11.8,3.2H21.2v-5.3l4.7-0.9V22.3l-4.7-0.9
					V16h4.7H40.7z M34.7,34.5H41c2.4,0,4.2-0.5,5.4-1.5c1.3-1,1.9-2.4,1.9-4.2c0-2-0.6-3.5-1.9-4.5s-3.2-1.5-5.7-1.5h-6V34.5z
					 M34.7,40.6v12.7h8.1c2.3,0,4.1-0.5,5.3-1.5s1.8-2.5,1.8-4.5c0-2.2-0.5-3.8-1.6-4.9c-1-1.1-2.7-1.7-5-1.7H34.7z"/>
			</g>
		</g>
		<g>
			<path fill="#FFFFFF" d="M40.7,16c5.2,0,9.2,1,12.1,3s4.4,5,4.4,9c0,2-0.5,3.9-1.6,5.5c-1.1,1.6-2.6,2.8-4.7,3.6
				c2.6,0.6,4.6,1.8,5.9,3.6c1.3,1.9,2,4,2,6.4c0,4.2-1.4,7.4-4.2,9.6c-2.8,2.2-6.7,3.2-11.8,3.2H21.2v-5.3l4.7-0.9V22.3l-4.7-0.9
				V16h4.7H40.7z M34.7,34.5H41c2.4,0,4.2-0.5,5.4-1.5c1.3-1,1.9-2.4,1.9-4.2c0-2-0.6-3.5-1.9-4.5s-3.2-1.5-5.7-1.5h-6V34.5z
				 M34.7,40.6v12.7h8.1c2.3,0,4.1-0.5,5.3-1.5s1.8-2.5,1.8-4.5c0-2.2-0.5-3.8-1.6-4.9c-1-1.1-2.7-1.7-5-1.7H34.7z"/>
		</g>
	</g>
</g>
</svg>
