<?xml version="1.0" encoding="utf-8"?>
<!-- Generator: Adobe Illustrator 18.0.0, SVG Export Plug-In . SVG Version: 6.00 Build 0)  -->
<!DOCTYPE svg PUBLIC "-//W3C//DTD SVG 1.1//EN" "http://www.w3.org/Graphics/SVG/1.1/DTD/svg11.dtd">
<svg version="1.1" id="Layer_1" xmlns="http://www.w3.org/2000/svg" xmlns:xlink="http://www.w3.org/1999/xlink" x="0px" y="0px"
	 viewBox="0 0 200 400" enable-background="new 0 0 200 400" xml:space="preserve">
<rect fill="#ABB6BA" width="200" height="400"/>
<rect x="1.6" y="340" fill="#969FA8" width="200" height="60"/>
<g>
	<g>
		<path fill="#2FBEC2" d="M114.6,371.3c-0.1,0-0.1,0-0.2,0c-2.3-0.1-4.1-2.1-4-4.4c0.6-13.5,1.2-24.3,1.8-33.8
			c2.3-39.8,2.9-50.5-4.3-104.7c-0.3-2.3,1.3-4.4,3.6-4.7c2.3-0.3,4.4,1.3,4.7,3.6c7.3,55.1,6.7,65.9,4.4,106.3
			c-0.5,9.5-1.2,20.3-1.8,33.7C118.7,369.5,116.9,371.3,114.6,371.3z"/>
	</g>
	<g>
		<path fill="#2FBEC2" d="M87.4,371.8c-2.1,0-3.9-1.6-4.2-3.7c-6.9-57.6,2.5-110,6.5-132.4c0.8-4.3,1.5-8.3,1.6-9.8
			c0.4-1.1,1-2,1.1-3.4c0.2-2.3,2.9-2.6,4.9-1.5c3,1.6,2.5,4.9,2.1,7.6c-0.3,2.1-0.8,5-1.5,8.6c-4,22-13.2,73.6-6.5,129.9
			c0.3,2.3-1.4,4.4-3.7,4.7C87.8,371.8,87.6,371.8,87.4,371.8z"/>
	</g>
	<g>
		<path fill="#FEDB9A" d="M135.4,224.8l-8.2-1.8c10.2-46.6-10.9-84.4-15.3-91.6l7.2-4.4C123.7,134.6,146.3,175,135.4,224.8z"/>
	</g>
	<g>
		<path fill="#FEDB9A" d="M77.3,218.9c-4.6-49.1,0.3-58.4,10.9-78.8c1.6-3.2,3.4-6.4,5.2-10.2l7.6,3.7c-1.9,3.9-3.7,7.3-5.3,10.4
			c-10.2,19.5-14.4,27.5-10,74.1L77.3,218.9z"/>
	</g>
	<g>
		<path fill="#D85649" d="M85.6,169.2l-8.3-1.6c2.1-10.6,6-18.1,10.9-27.5c1.6-3.2,3.4-6.4,5.2-10.2l7.6,3.7
			c-1.9,3.9-3.7,7.3-5.3,10.4C91,153.2,87.5,159.8,85.6,169.2z"/>
	</g>
	<g>
		<path fill="#D85649" d="M127.2,171.5c-4.4-21.1-12.8-36-15.3-40.1l7.2-4.4c2.7,4.3,11.7,20.3,16.3,42.8L127.2,171.5z"/>
	</g>
	<path fill="#913830" d="M124,136.1c-2.1-4.4-3.9-7.5-4.9-9.1l-7.2,4.4c2.1,3.5,8.6,14.9,13.2,31.4C125,152.7,124.6,143.8,124,136.1
		z"/>
	<circle fill="#FEDB9A" cx="129.7" cy="221.1" r="7.7"/>
	<circle fill="#FEDB9A" cx="83.5" cy="221.1" r="7.7"/>
	<g>
		<path fill="#D85649" d="M116.4,229.8l-25-3.9c10.1-65.4,0.2-111.8,0.1-112.3l24.7-5.4C116.7,110.3,127.2,159.4,116.4,229.8z"/>
	</g>
	<path fill="#2FBEC2" d="M118.2,216.6l-25.1-3.3c-0.6,5.2-0.9,7-1.7,12.5l25,3.9C117.3,224,117.6,222.1,118.2,216.6z"/>
	<path fill="#913830" d="M116.2,108.2l-24.7,5.4c0,0.1,0.6,3,1.4,8.2c5.4,2.3,11.5,3,17.6,1.5c2.8-0.7,5.4-1.8,7.7-3.3
		C117.2,112.9,116.3,108.7,116.2,108.2z"/>
	<g>
		<circle fill="#FEDB9A" cx="103.8" cy="89.9" r="27.4"/>
		<path fill="#E5BB77" d="M85.2,97.4c-3.6-14.5,3.8-29.1,17-35c-1.7,0.1-3.3,0.3-5,0.8c-14.7,3.7-23.6,18.6-19.9,33.3
			C80.1,108,89.9,116,101,117.1C93.4,113.3,87.4,106.4,85.2,97.4z"/>
		<path fill="#E35928" d="M123.7,71c-4.1-4.3-9.6-7.2-15.5-8.2c0,0,0,0,0,0c-3.1-0.5-6.4-0.4-9.6,0.2c0,0,0,0,0,0l0,0
			c-0.5,0.1-0.9,0.2-1.4,0.3c-10.2,2.6-17.6,10.6-20,20.2c0,0.1,0,0.2-0.1,0.2C77,84,77,84.4,76.9,84.8c-0.1,0.3-0.1,0.5-0.1,0.8
			c-0.1,0.3-0.1,0.7-0.1,1c-0.1,0.4-0.1,0.9-0.1,1.3c0,0.2,0,0.3,0,0.5c0,0,0,0,0,0c-0.1,2.7,0.1,5.4,0.8,8.2
			c0.6,2.2,1.4,4.2,2.4,6.2c3.4-4.1,5.6-9.1,6.2-14.5c0.6-0.1,1.1-0.2,1.7-0.3c8.3-2.1,14.7-7.7,18.1-14.9
			c6.2,5.6,14.9,8.3,23.7,6.6c3.4-4.4,5.5-9.9,5.8-15.7C131.9,67.1,128.1,69.6,123.7,71z"/>
		<path fill="#B54724" d="M78.1,99.5c0.1,0.1,0.1,0.3,0.2,0.4c0.4,1,0.8,1.9,1.3,2.8c2.2-2.6,3.8-5.6,4.9-8.9
			c-1.7-13.2,5.5-25.9,17.6-31.3c-0.3,0-0.5,0-0.8,0.1c-0.2,0-0.3,0-0.5,0.1c-0.7,0.1-1.5,0.2-2.2,0.3c0,0,0,0,0,0l0,0
			c-0.5,0.1-0.9,0.2-1.4,0.3c-0.8,0.2-1.6,0.5-2.4,0.7c-0.2,0.1-0.4,0.2-0.6,0.2c-0.6,0.2-1.3,0.5-1.9,0.8c-0.1,0.1-0.3,0.1-0.4,0.2
			c-0.7,0.3-1.4,0.7-2.1,1.1c-0.2,0.1-0.4,0.3-0.6,0.4c-0.5,0.3-1,0.6-1.4,1c-0.2,0.1-0.4,0.3-0.6,0.4c-0.6,0.4-1.1,0.9-1.7,1.4
			c-0.2,0.2-0.4,0.4-0.6,0.6c-0.3,0.3-0.7,0.7-1,1c-0.2,0.3-0.5,0.5-0.7,0.8c-0.3,0.4-0.6,0.7-0.9,1.1c-0.3,0.4-0.7,0.9-1,1.3
			c-0.2,0.3-0.4,0.6-0.6,0.9c-0.2,0.4-0.4,0.7-0.7,1.1c-0.1,0.3-0.3,0.5-0.4,0.8c-0.4,0.7-0.7,1.5-1,2.2c-0.1,0.2-0.2,0.4-0.3,0.6
			c-0.2,0.4-0.3,0.9-0.5,1.4c-0.1,0.2-0.1,0.5-0.2,0.7c-0.1,0.4-0.3,0.9-0.4,1.4c0,0,0,0.1,0,0.1c-0.1,0.5-0.2,1-0.3,1.6
			c0,0.2-0.1,0.3-0.1,0.5c0,0.2-0.1,0.4-0.1,0.6c-0.1,0.6-0.2,1.3-0.2,1.9c0,0.1,0,0.2,0,0.3l0,0c0,0,0,0,0,0c0,0.1,0,0.2,0,0.4
			c0,0.7,0,1.3,0,2c0,0.3,0,0.6,0,0.8c0,0.6,0.1,1.2,0.2,1.7c0,0.3,0.1,0.5,0.1,0.8c0.1,0.8,0.3,1.6,0.5,2.5
			c0.2,0.6,0.3,1.2,0.5,1.8C77.9,98.7,78,99.1,78.1,99.5z"/>
		<path fill="none" stroke="#3C5458" stroke-width="2.8144" stroke-linecap="round" stroke-miterlimit="10" d="M107.8,110.5
			c0,0,8.1,1.1,11.5-5.6"/>
		<path fill="none" stroke="#E35928" stroke-width="2.8144" stroke-linecap="round" stroke-miterlimit="10" d="M113.6,84.8
			c0,0-6.5-4.8-12.7-0.7"/>
		
			<rect x="99.5" y="88.9" transform="matrix(0.9985 -5.417072e-002 5.417072e-002 0.9985 -4.8886 5.9539)" fill="#FFFFFF" stroke="#3C5458" stroke-width="2.8144" stroke-linecap="round" stroke-linejoin="round" stroke-miterlimit="10" width="15.8" height="8.5"/>
		
			<rect x="119.6" y="87.8" transform="matrix(0.9985 -5.417072e-002 5.417072e-002 0.9985 -4.7998 7.0432)" fill="#FFFFFF" stroke="#3C5458" stroke-width="2.8144" stroke-linecap="round" stroke-linejoin="round" stroke-miterlimit="10" width="15.8" height="8.5"/>
	</g>
</g>
</svg>
