<?xml version="1.0" encoding="utf-8"?>
<!-- Generator: Adobe Illustrator 18.0.0, SVG Export Plug-In . SVG Version: 6.00 Build 0)  -->
<!DOCTYPE svg PUBLIC "-//W3C//DTD SVG 1.1//EN" "http://www.w3.org/Graphics/SVG/1.1/DTD/svg11.dtd">
<svg version="1.1" id="Layer_1" xmlns="http://www.w3.org/2000/svg" xmlns:xlink="http://www.w3.org/1999/xlink" x="0px" y="0px"
	 viewBox="0 0 29.6 48.5" enable-background="new 0 0 29.6 48.5" xml:space="preserve">
<g>
	<ellipse fill="#CFCFCD" cx="-940.7" cy="49.4" rx="11.3" ry="3.1"/>
	<path fill="#CFCFCD" d="M-937.1,40.9c0,4,3.3,7.3,7.3,7.3c4,0,7.3-3.3,7.3-7.3c0-4-3.3-7.3-7.3-7.3
		C-933.8,33.6-937.1,36.9-937.1,40.9z M-934.6,40.9c0-2.7,2.2-4.9,4.9-4.9c2.7,0,4.9,2.2,4.9,4.9c0,2.7-2.2,4.9-4.9,4.9
		C-932.4,45.8-934.6,43.6-934.6,40.9z"/>
	<ellipse fill="#CFCFCD" cx="-940.7" cy="31.6" rx="11.3" ry="3.1"/>
	<rect x="-952" y="31.6" fill="#CFCFCD" width="22.6" height="17.8"/>
	<ellipse fill="#969FA8" cx="-940.7" cy="31.6" rx="9.3" ry="2.6"/>
	<path fill="#B54724" d="M-932.5,32.8c-1.6,0.8-4.7,1.4-8.2,1.4s-6.7-0.6-8.2-1.4c1.6-0.8,4.7-1.4,8.2-1.4S-934,31.9-932.5,32.8z"/>
	<path fill="#F6F7F1" d="M-941.7,25.8c0,0,3.5-4.4,0-9.1s-0.9-10.3,4.7-12.7c-3.1,5.1-3.3,7.7-0.6,10.9
		C-935,18.1-936,22.5-941.7,25.8z"/>
</g>
<g>
	<ellipse fill="#CFCFCD" cx="11.3" cy="45.4" rx="11.3" ry="3.1"/>
	<path fill="#CFCFCD" d="M14.9,36.9c0,4,3.3,7.3,7.3,7.3c4,0,7.3-3.3,7.3-7.3c0-4-3.3-7.3-7.3-7.3C18.2,29.6,14.9,32.9,14.9,36.9z
		 M17.4,36.9c0-2.7,2.2-4.9,4.9-4.9s4.9,2.2,4.9,4.9c0,2.7-2.2,4.9-4.9,4.9S17.4,39.6,17.4,36.9z"/>
	<ellipse fill="#CFCFCD" cx="11.3" cy="27.6" rx="11.3" ry="3.1"/>
	<rect x="0" y="27.6" fill="#CFCFCD" width="22.6" height="17.8"/>
	<ellipse fill="#969FA8" cx="11.3" cy="27.6" rx="9.3" ry="2.6"/>
	<path fill="#B54724" d="M19.5,28.8c-1.6,0.8-4.7,1.4-8.2,1.4S4.6,29.6,3,28.8c1.6-0.8,4.7-1.4,8.2-1.4S18,27.9,19.5,28.8z"/>
	<path fill="#F6F7F1" d="M10.3,21.8c0,0,3.5-4.4,0-9.1S9.4,2.4,14.9,0c-3.1,5.1-3.3,7.7-0.6,10.9S16,18.5,10.3,21.8z"/>
</g>
</svg>
