<?xml version="1.0" encoding="utf-8"?>
<!-- Generator: Adobe Illustrator 18.0.0, SVG Export Plug-In . SVG Version: 6.00 Build 0)  -->
<!DOCTYPE svg PUBLIC "-//W3C//DTD SVG 1.1//EN" "http://www.w3.org/Graphics/SVG/1.1/DTD/svg11.dtd">
<svg version="1.1" id="Layer_1" xmlns="http://www.w3.org/2000/svg" xmlns:xlink="http://www.w3.org/1999/xlink" x="0px" y="0px"
	 viewBox="67.1 0 825.9 560" enable-background="new 67.1 0 825.9 560" xml:space="preserve">
<g>
	<g>
		<path fill="#E35928" d="M820.4,190.9h-65.2c-2,0-3.6-1.7-3.6-3.6v-29c0-2,1.7-3.6,3.6-3.6h65.2c2,0,3.6,1.7,3.6,3.6v29
			C824,189.3,822.4,190.9,820.4,190.9z"/>
		<path fill="#E35928" d="M860,234.4h-65.2c-2,0-3.6-1.7-3.6-3.6v-29c0-2,1.7-3.6,3.6-3.6H860c2,0,3.6,1.7,3.6,3.6v29
			C863.6,232.7,862.1,234.4,860,234.4z"/>
		<path fill="#E35928" d="M780.3,234.4h-65.2c-2,0-3.6-1.7-3.6-3.6v-29c0-2,1.7-3.6,3.6-3.6h65.2c2,0,3.6,1.7,3.6,3.6v29
			C783.9,232.7,782.4,234.4,780.3,234.4z"/>
		<path fill="#E35928" d="M780.3,321.3h-65.2c-2,0-3.6-1.7-3.6-3.6v-29c0-2,1.7-3.6,3.6-3.6h65.2c2,0,3.6,1.7,3.6,3.6v29
			C783.9,319.7,782.4,321.3,780.3,321.3z"/>
		<path fill="#E35928" d="M820.4,277.9h-65.2c-2,0-3.6-1.7-3.6-3.6v-29c0-2,1.7-3.6,3.6-3.6h65.2c2,0,3.6,1.7,3.6,3.6v29
			C824,276.2,822.4,277.9,820.4,277.9z"/>
	</g>
</g>
<g>
	<g>
		<path fill="#E35928" d="M490.7,277.9h-65.2c-2,0-3.6-1.7-3.6-3.6v-29c0-2,1.7-3.6,3.6-3.6h65.2c2,0,3.6,1.7,3.6,3.6v29
			C494.3,276.2,492.8,277.9,490.7,277.9z"/>
		<path fill="#E35928" d="M530.4,321.3h-65.2c-2,0-3.6-1.7-3.6-3.6v-29c0-2,1.7-3.6,3.6-3.6h65.2c2,0,3.6,1.7,3.6,3.6v29
			C534,319.7,532.3,321.3,530.4,321.3z"/>
		<path fill="#E35928" d="M450.7,321.3h-65.2c-2,0-3.6-1.7-3.6-3.6v-29c0-2,1.7-3.6,3.6-3.6h65.2c2,0,3.6,1.7,3.6,3.6v29
			C454.3,319.7,452.6,321.3,450.7,321.3z"/>
		<path fill="#E35928" d="M450.7,408.3h-65.2c-2,0-3.6-1.7-3.6-3.6v-29c0-2,1.7-3.6,3.6-3.6h65.2c2,0,3.6,1.7,3.6,3.6v29
			C454.3,406.6,452.6,408.3,450.7,408.3z"/>
		<path fill="#E35928" d="M610.1,408.3h-65.2c-2,0-3.6-1.7-3.6-3.6v-29c0-2,1.7-3.6,3.6-3.6h65.2c2,0,3.6,1.7,3.6,3.6v29
			C613.7,406.6,612,408.3,610.1,408.3z"/>
		<path fill="#E35928" d="M490.7,364.8h-65.2c-2,0-3.6-1.7-3.6-3.6v-29c0-2,1.7-3.6,3.6-3.6h65.2c2,0,3.6,1.7,3.6,3.6v29
			C494.3,363.1,492.8,364.8,490.7,364.8z"/>
		<path fill="#E35928" d="M570,364.8h-65.2c-2,0-3.6-1.7-3.6-3.6v-29c0-2,1.7-3.6,3.6-3.6H570c2,0,3.6,1.7,3.6,3.6v29
			C573.6,363.1,571.9,364.8,570,364.8z"/>
	</g>
</g>
</svg>
