<?xml version="1.0" encoding="utf-8"?>
<!-- Generator: Adobe Illustrator 18.0.0, SVG Export Plug-In . SVG Version: 6.00 Build 0)  -->
<!DOCTYPE svg PUBLIC "-//W3C//DTD SVG 1.1//EN" "http://www.w3.org/Graphics/SVG/1.1/DTD/svg11.dtd">
<svg version="1.1" id="Layer_1" xmlns="http://www.w3.org/2000/svg" xmlns:xlink="http://www.w3.org/1999/xlink" x="0px" y="0px"
	 viewBox="0 0 157.2 268.1" enable-background="new 0 0 157.2 268.1" xml:space="preserve">
<g>
	<g>
		<g>
			<path fill="#C6BC71" d="M117.1,173.1l-23.8-9.9c20.9-50.4,0-108.9-0.2-109.4l24.2-8.8C118.3,47.7,141.8,113.5,117.1,173.1z"/>
		</g>
	</g>
	<path fill="#877C44" d="M117,44.9l-24.2,8.8c0,0.1,1,2.7,2.2,7.2c1,0.4,2,0.7,3.1,1c8.1,2,16.4,0.3,22.7-4.2
		C118.9,50.2,117.3,45.6,117,44.9z"/>
	<g>
		<path fill="#2FBEC2" d="M19.1,268.1c-0.1,0-0.2,0-0.3,0c-2.4-0.1-4.2-2.2-4-4.5c2-35.4,5.8-60.6,18.2-77.1
			c12.4-16.4,32.9-24,68.4-25.3c2.3-0.1,4.4,1.8,4.4,4.1c0.1,2.4-1.8,4.4-4.1,4.4c-63.5,2.3-74.3,23.3-78.4,94.2
			C23.2,266.4,21.3,268.1,19.1,268.1z"/>
	</g>
	<g>
		<path fill="#2FBEC2" d="M4.3,261.6c-0.2,0-0.4,0-0.5,0c-2.4-0.3-4-2.4-3.7-4.8c5.6-44.4,20.9-74.6,45.4-89.7
			c27.5-17,57.9-9.1,69.7-4.9c2.2,0.8,3.4,3.2,2.6,5.5c-0.8,2.2-3.2,3.4-5.5,2.6c-10.6-3.8-38-10.9-62.4,4.1
			c-22.2,13.7-36.1,41.8-41.4,83.4C8.3,260.1,6.4,261.6,4.3,261.6z"/>
	</g>
	<path fill="none" stroke="#FF0000" stroke-width="8.5803" stroke-miterlimit="10" d="M127.9,107.7"/>
	<path fill="none" stroke="#FF0000" stroke-width="8.5803" stroke-miterlimit="10" d="M111.9,70.4"/>
	<g>
		<circle fill="#FFCE41" cx="95" cy="32.5" r="21"/>
		<path fill="#FFCE41" d="M143.7,25.9c-5.9-1.5-10.9-4.6-14.7-8.7H80.9c1.2,15.6,12.2,29.5,28.2,33.5c19,4.8,38.2-5.9,44.5-24
			C150.3,26.9,147,26.7,143.7,25.9z"/>
		<circle fill="#ECCEB2" cx="105.2" cy="27.9" r="27.9"/>
		<path fill="#FFCE41" d="M78.7,18.4c6.7-3,12.2-8.7,14.8-16C86.8,5.5,81.3,11.1,78.7,18.4z"/>
		<path fill="#E4BA97" d="M124.2,35.6c3.7-14.7-3.9-29.6-17.3-35.5c1.7,0.1,3.4,0.3,5.1,0.8c14.9,3.8,24,18.9,20.3,33.8
			c-2.9,11.7-12.9,19.8-24.2,20.9C115.8,51.7,121.9,44.7,124.2,35.6z"/>
		<path fill="none" stroke="#2FBEC2" stroke-width="2.5" stroke-linecap="round" stroke-miterlimit="10" d="M103.7,23.1
			c0,0,4.1-4.9,9.6-2.9"/>
		<path fill="none" stroke="#FF7B46" stroke-width="2.5" stroke-linecap="round" stroke-miterlimit="10" d="M91.1,45.4
			c0,0,5.1-5,16.5-0.6"/>
		<path fill="none" stroke="#2FBEC2" stroke-width="2.5" stroke-linecap="round" stroke-miterlimit="10" d="M84.5,20.4
			c0,0,6-2.1,9.7,2.4"/>
		<g>
			<circle fill="#FF7B46" cx="109.6" cy="29.5" r="1.6"/>
			<circle fill="#FF7B46" cx="116.6" cy="29.5" r="1.6"/>
			<circle fill="#FF7B46" cx="113.6" cy="33.5" r="1.6"/>
		</g>
		<g>
			<circle fill="#FF7B46" cx="79.6" cy="29.5" r="1.6"/>
			<circle fill="#FF7B46" cx="86.6" cy="29.5" r="1.6"/>
			<circle fill="#FF7B46" cx="83.6" cy="33.5" r="1.6"/>
		</g>
		<path fill="#FFCE41" d="M111.7,0.8C105.4-0.7,99.1,0,93.5,2.4c3.7,8,10.8,14.4,20.1,16.7c6,1.5,12.1,1.1,17.5-0.9
			C128,9.9,121,3.2,111.7,0.8z"/>
	</g>
	<g>
		<path fill="#C6BC71" d="M94.4,123.6l-0.1-8.6c47.9-0.5,53.6-11.3,54.2-14.6c1.4-7.6-5.5-16.5-23.1-23.5l-2.7-10.5
			c18.9,7.5,36.8,21.4,34.2,35.6C154.3,116,133.3,123.2,94.4,123.6z"/>
	</g>
	<path fill="#877C44" d="M131.1,79.6c-0.6-3.8-2.5-7.5-3.2-10.8c-1.8-0.8-3.6-1.6-5.5-2.4l2.7,10.5
		C128.9,78.5,127.9,77.8,131.1,79.6z"/>
	<circle fill="#ECCEB2" cx="95.3" cy="119.9" r="9.5"/>
</g>
</svg>
