<?xml version="1.0" encoding="utf-8"?>
<!-- Generator: Adobe Illustrator 18.0.0, SVG Export Plug-In . SVG Version: 6.00 Build 0)  -->
<!DOCTYPE svg PUBLIC "-//W3C//DTD SVG 1.1//EN" "http://www.w3.org/Graphics/SVG/1.1/DTD/svg11.dtd">
<svg version="1.1" id="Layer_1" xmlns="http://www.w3.org/2000/svg" xmlns:xlink="http://www.w3.org/1999/xlink" x="0px" y="0px"
	 viewBox="0 0 1420 771.9" enable-background="new 0 0 1420 771.9" xml:space="preserve">
<path fill="#F6F7F1" d="M1197,592.4c-3.2,0-6.3,0.5-9.2,1.4c-6.4-24.9-27.6-43.3-52.7-43.3c-17,0-32.2,8.4-42.2,21.6
	c-1.5-0.2-2.9-0.3-4.4-0.3c-15,0-28,8.3-34.7,20.6c-0.6,0-1.2-0.1-1.8-0.1c-17.1,0-31,14.1-31,31.3s13.9,31.3,31,31.3h47.3
	c0.2,0,0.3-0.2,0.5,0h70.7c0.2-0.2,0.3,0,0.5,0h26c17.1,0,31-14.1,31-31.3S1214.1,592.4,1197,592.4z"/>
<path fill="#F6F7F1" d="M767,126.4c-3.2,0-6.3,0.5-9.2,1.4c-6.4-24.9-27.6-43.3-52.7-43.3c-17,0-32.2,8.4-42.2,21.6
	c-1.5-0.2-2.9-0.3-4.4-0.3c-15,0-28,8.3-34.7,20.6c-0.6,0-1.2-0.1-1.8-0.1c-17.1,0-31,14.1-31,31.3s13.9,31.3,31,31.3h47.3
	c0.2,0,0.3-0.2,0.5,0h70.7c0.2-0.2,0.3,0,0.5,0h26c17.1,0,31-14.1,31-31.3S784.1,126.4,767,126.4z"/>
<path fill="#F6F7F1" d="M197,638.4c-3.2,0-6.3,0.5-9.2,1.4c-6.4-24.9-27.6-43.3-52.7-43.3c-17,0-32.2,8.4-42.2,21.6
	c-1.5-0.2-2.9-0.3-4.4-0.3c-15,0-28,8.3-34.7,20.6c-0.6,0-1.2-0.1-1.8-0.1c-17.1,0-31,14.1-31,31.3s13.9,31.3,31,31.3h47.3
	c0.2,0,0.3-0.2,0.5,0h70.7c0.2-0.2,0.3,0,0.5,0h26c17.1,0,31-14.1,31-31.3S214.1,638.4,197,638.4z"/>
<path fill="#F6F7F1" d="M1347,235.4c-3.2,0-6.3,0.5-9.2,1.4c-6.4-24.9-27.6-43.3-52.7-43.3c-17,0-32.2,8.4-42.2,21.6
	c-1.5-0.2-2.9-0.3-4.4-0.3c-15,0-28,8.3-34.7,20.6c-0.6,0-1.2-0.1-1.8-0.1c-17.1,0-31,14.1-31,31.3s13.9,31.3,31,31.3h47.3
	c0.2,0,0.3-0.2,0.5,0h70.7c0.2-0.2,0.3,0,0.5,0h26c17.1,0,31-14.1,31-31.3S1364.1,235.4,1347,235.4z"/>
<path fill="#F6F7F1" d="M290,287.4c-3.2,0-6.3,0.5-9.2,1.4c-6.4-24.9-27.6-43.3-52.7-43.3c-17,0-32.2,8.4-42.2,21.6
	c-1.5-0.2-2.9-0.3-4.4-0.3c-15,0-28,8.3-34.7,20.6c-0.6,0-1.2-0.1-1.8-0.1c-17.1,0-31,14.1-31,31.3s13.9,31.3,31,31.3h47.3
	c0.2,0,0.3-0.2,0.5,0h70.7c0.2-0.2,0.3,0,0.5,0h26c17.1,0,31-14.1,31-31.3S307.1,287.4,290,287.4z"/>
</svg>
