<?xml version="1.0" encoding="utf-8"?>
<!-- Generator: Adobe Illustrator 18.0.0, SVG Export Plug-In . SVG Version: 6.00 Build 0)  -->
<!DOCTYPE svg PUBLIC "-//W3C//DTD SVG 1.1//EN" "http://www.w3.org/Graphics/SVG/1.1/DTD/svg11.dtd">
<svg version="1.1" id="Layer_1" xmlns="http://www.w3.org/2000/svg" xmlns:xlink="http://www.w3.org/1999/xlink" x="0px" y="0px"
	 viewBox="0 0 16.4 21.2" enable-background="new 0 0 16.4 21.2" xml:space="preserve">
<g>
	<path fill="#969FA8" d="M9,21.2H7.4c-4.1,0-7.4-3.3-7.4-7.4V9.2c0-4.1,3.3-7.4,7.4-7.4H9c4.1,0,7.4,3.3,7.4,7.4v4.5
		C16.4,17.8,13.1,21.2,9,21.2z"/>
	<path fill="#CFCFCD" d="M9,19.3H7.4C3.3,19.3,0,16,0,11.9V7.4C0,3.3,3.3,0,7.4,0L9,0c4.1,0,7.4,3.3,7.4,7.4v4.5
		C16.4,16,13.1,19.3,9,19.3z"/>
</g>
</svg>
