<?xml version="1.0" encoding="utf-8"?>
<!-- Generator: Adobe Illustrator 18.0.0, SVG Export Plug-In . SVG Version: 6.00 Build 0)  -->
<!DOCTYPE svg PUBLIC "-//W3C//DTD SVG 1.1//EN" "http://www.w3.org/Graphics/SVG/1.1/DTD/svg11.dtd">
<svg version="1.1" id="Layer_1" xmlns="http://www.w3.org/2000/svg" xmlns:xlink="http://www.w3.org/1999/xlink" x="0px" y="0px"
	 viewBox="0 210.2 841.9 174.9" enable-background="new 0 210.2 841.9 174.9" xml:space="preserve">
<rect x="9.2" y="219.4" opacity="0.2" enable-background="new    " width="833.3" height="165.4"/>
<rect y="210.2" fill="#BEDC4A" width="833.3" height="165.4"/>
<g>
	<g enable-background="new    ">
		<path fill="#9ABE28" d="M105.3,268.3c7.6,0,13.8,2.4,18.7,7.2c4.9,4.8,7.3,11,7.3,18.6v10.2c0,7.6-2.4,13.8-7.3,18.6
			c-4.9,4.8-11.1,7.2-18.7,7.2H77.4v-7.4l6.6-1.3V277l-6.6-1.3v-7.5H84H105.3z M96.4,277.8v42.8h8.2c4.4,0,7.9-1.5,10.4-4.5
			c2.5-3,3.8-6.9,3.8-11.8V294c0-4.8-1.3-8.7-3.8-11.7c-2.5-3-6-4.5-10.4-4.5H96.4z"/>
		<path fill="#9ABE28" d="M177.3,302.9h-20.9v17.7h20l0.6-7.4h9.4v16.9h-48.9v-7.4l6.6-1.3V277l-6.6-1.3v-7.5h6.6h42.2v16.9h-9.5
			l-0.6-7.4h-19.8v15.5h20.9V302.9z"/>
		<path fill="#9ABE28" d="M239.8,288h-9.3l-1.6-8.5c-1.1-0.7-2.6-1.3-4.7-1.8c-2.1-0.5-4.3-0.8-6.6-0.8c-3.4,0-6,0.7-7.9,2.1
			c-1.9,1.4-2.8,3.3-2.8,5.5c0,2.1,1,3.8,2.9,5.2c1.9,1.3,5.3,2.8,10,4.3c6.8,1.9,12,4.4,15.5,7.5c3.5,3.1,5.3,7.2,5.3,12.3
			c0,5.3-2.1,9.5-6.3,12.5c-4.2,3.1-9.7,4.6-16.6,4.6c-4.9,0-9.3-0.8-13.3-2.3c-3.9-1.6-7.2-3.7-9.9-6.5v-12.9h9.6l1.3,8.8
			c1.2,1,2.9,1.9,5.1,2.5c2.1,0.7,4.5,1,7.2,1c3.4,0,6-0.7,7.7-2.1c1.8-1.4,2.7-3.2,2.7-5.6c0-2.4-0.8-4.3-2.5-5.7
			c-1.7-1.4-4.6-2.8-8.9-4.1c-7.3-2.1-12.9-4.6-16.6-7.6c-3.8-2.9-5.6-6.9-5.6-12c0-5,2.1-9.1,6.4-12.3c4.2-3.2,9.6-4.8,16-4.9
			c4.8,0,9.1,0.7,13,2.2c3.9,1.4,7.2,3.4,9.9,5.8V288z"/>
		<path fill="#9ABE28" d="M245.6,275.8v-7.5h25.6v7.5l-6.6,1.3v44.4l6.6,1.3v7.4h-25.6v-7.4l6.6-1.3V277L245.6,275.8z"/>
		<path fill="#9ABE28" d="M327.1,323.2c-2,2-4.9,3.8-8.8,5.4c-3.9,1.6-8.7,2.4-14.6,2.4c-8.4,0-15.1-2.8-20.4-8.4
			c-5.2-5.6-7.9-12.9-7.9-21.8v-2.1c0-9.3,2.6-16.8,7.7-22.6c5.2-5.8,11.9-8.7,20.2-8.7c4.8,0,9.3,0.8,13.3,2.3
			c4,1.5,7.3,3.6,10,6.3v12.4h-9.2l-1.7-8.3c-1.1-1-2.6-1.7-4.5-2.3c-1.9-0.6-4-0.9-6.4-0.9c-5.4,0-9.6,2-12.6,6
			c-3,4-4.5,9.2-4.5,15.7v2.2c0,6.3,1.5,11.3,4.4,15.1c2.9,3.8,7.2,5.6,12.7,5.6c2.5,0,4.5-0.2,6.1-0.6c1.5-0.4,2.8-0.9,3.6-1.5
			v-10.5l-8.8-0.7v-8.7h21.3V323.2z"/>
		<path fill="#9ABE28" d="M396.5,268.3v7.5l-6.6,1.3v53.1h-12.4l-25-41.6l-0.3,0v32.9l6.6,1.3v7.4h-25.6v-7.4l6.6-1.3V277l-6.6-1.3
			v-7.5h6.6h12.4l25,41.6l0.3,0V277l-6.6-1.3v-7.5h19H396.5z"/>
		<path fill="#9ABE28" d="M440.4,302.9h-20.9v17.7h20l0.6-7.4h9.4v16.9h-48.9v-7.4l6.6-1.3V277l-6.6-1.3v-7.5h6.6h42.2v16.9h-9.5
			l-0.6-7.4h-19.8v15.5h20.9V302.9z"/>
		<path fill="#9ABE28" d="M483.8,268.3c7,0,12.5,1.6,16.5,4.8c4,3.2,6,7.6,6,13.3c0,3.1-0.8,5.8-2.5,8.1c-1.7,2.3-4.1,4.1-7.3,5.6
			c3.7,1.1,6.3,2.9,7.9,5.4c1.6,2.5,2.4,5.6,2.4,9.3v3.1c0,1.4,0.3,2.4,0.8,3.2c0.5,0.8,1.4,1.2,2.7,1.3l1.5,0.2v7.5h-6.4
			c-4,0-6.9-1.1-8.5-3.3c-1.6-2.2-2.5-5-2.5-8.4v-3.5c0-3-0.8-5.4-2.4-7.1c-1.6-1.7-3.9-2.6-6.8-2.7H475v16.3l6.6,1.3v7.4H456v-7.4
			l6.6-1.3V277l-6.6-1.3v-7.5h6.6H483.8z M475,295.5h8.6c3.5,0,6-0.7,7.8-2.2s2.6-3.6,2.6-6.4s-0.9-5-2.6-6.6
			c-1.7-1.7-4.2-2.5-7.6-2.5H475V295.5z"/>
		<path fill="#9ABE28" d="M584.1,288h-9.3l-1.6-8.5c-1.1-0.7-2.6-1.3-4.7-1.8c-2.1-0.5-4.3-0.8-6.6-0.8c-3.4,0-6,0.7-7.9,2.1
			c-1.9,1.4-2.8,3.3-2.8,5.5c0,2.1,1,3.8,2.9,5.2c1.9,1.3,5.3,2.8,10,4.3c6.8,1.9,12,4.4,15.5,7.5c3.5,3.1,5.3,7.2,5.3,12.3
			c0,5.3-2.1,9.5-6.3,12.5c-4.2,3.1-9.7,4.6-16.6,4.6c-4.9,0-9.3-0.8-13.3-2.3c-3.9-1.6-7.2-3.7-9.9-6.5v-12.9h9.6l1.3,8.8
			c1.2,1,2.9,1.9,5.1,2.5c2.1,0.7,4.5,1,7.2,1c3.4,0,6-0.7,7.7-2.1c1.8-1.4,2.7-3.2,2.7-5.6c0-2.4-0.8-4.3-2.5-5.7
			c-1.7-1.4-4.6-2.8-8.9-4.1c-7.3-2.1-12.9-4.6-16.6-7.6c-3.8-2.9-5.6-6.9-5.6-12c0-5,2.1-9.1,6.4-12.3c4.2-3.2,9.6-4.8,16-4.9
			c4.8,0,9.1,0.7,13,2.2c3.9,1.4,7.2,3.4,9.9,5.8V288z"/>
		<path fill="#9ABE28" d="M589.9,275.8v-7.5h25.6v7.5l-6.6,1.3v17.8h25.2V277l-6.6-1.3v-7.5h6.6h12.4h6.6v7.5l-6.6,1.3v44.4l6.6,1.3
			v7.4h-25.6v-7.4l6.6-1.3v-17h-25.2v17l6.6,1.3v7.4h-25.6v-7.4l6.6-1.3V277L589.9,275.8z"/>
		<path fill="#9ABE28" d="M714.3,299.7c0,9.1-2.6,16.5-7.8,22.5c-5.2,5.9-12,8.9-20.3,8.9c-8.4,0-15.1-3-20.2-8.9
			c-5.1-5.9-7.7-13.4-7.7-22.5v-0.9c0-9,2.6-16.5,7.7-22.4c5.1-5.9,11.9-8.9,20.2-8.9c8.4,0,15.2,3,20.4,8.9
			c5.2,5.9,7.8,13.4,7.8,22.4V299.7z M702,298.6c0-6.4-1.3-11.6-4-15.6c-2.7-4-6.6-6-11.8-6s-9.1,2-11.7,5.9
			c-2.6,4-3.8,9.2-3.8,15.6v1c0,6.5,1.3,11.8,3.9,15.7c2.6,4,6.5,6,11.7,6c5.2,0,9.2-2,11.8-6c2.6-4,3.9-9.2,3.9-15.7V298.6z"/>
		<path fill="#9ABE28" d="M748.7,268.3c7.1,0,12.7,1.8,16.7,5.5c4.1,3.6,6.1,8.4,6.1,14.3c0,5.9-2,10.7-6.1,14.3s-9.7,5.4-16.7,5.4
			h-10.4v13.7l6.6,1.3v7.4h-25.6v-7.4l6.6-1.3V277l-6.6-1.3v-7.5h6.6H748.7z M738.3,298.1h10.4c3.5,0,6.1-0.9,7.8-2.8
			c1.8-1.9,2.7-4.3,2.7-7.2c0-3-0.9-5.4-2.7-7.4c-1.8-1.9-4.4-2.9-7.8-2.9h-10.4V298.1z"/>
	</g>
</g>
<g>
	<g enable-background="new    ">
		<path fill="#FFFFFF" d="M97.8,260.8c7.6,0,13.8,2.4,18.7,7.2c4.9,4.8,7.3,11,7.3,18.6v10.2c0,7.6-2.4,13.8-7.3,18.6
			c-4.9,4.8-11.1,7.2-18.7,7.2H70v-7.4l6.6-1.3v-44.4l-6.6-1.3v-7.5h6.6H97.8z M88.9,270.4v42.8h8.2c4.4,0,7.9-1.5,10.4-4.5
			c2.5-3,3.8-6.9,3.8-11.8v-10.3c0-4.8-1.3-8.7-3.8-11.7c-2.5-3-6-4.5-10.4-4.5H88.9z"/>
		<path fill="#FFFFFF" d="M169.8,295.5h-20.9v17.7h20l0.6-7.4h9.4v16.9h-48.9v-7.4l6.6-1.3v-44.4l-6.6-1.3v-7.5h6.6h42.2v16.9h-9.5
			l-0.6-7.4h-19.8v15.5h20.9V295.5z"/>
		<path fill="#FFFFFF" d="M232.4,280.6h-9.3l-1.6-8.5c-1.1-0.7-2.6-1.3-4.7-1.8c-2.1-0.5-4.3-0.8-6.6-0.8c-3.4,0-6,0.7-7.9,2.1
			c-1.9,1.4-2.8,3.3-2.8,5.5c0,2.1,1,3.8,2.9,5.2c1.9,1.3,5.3,2.8,10,4.3c6.8,1.9,12,4.4,15.5,7.5c3.5,3.1,5.3,7.2,5.3,12.3
			c0,5.3-2.1,9.5-6.3,12.5c-4.2,3.1-9.7,4.6-16.6,4.6c-4.9,0-9.3-0.8-13.3-2.3c-3.9-1.6-7.2-3.7-9.9-6.5v-12.9h9.6l1.3,8.8
			c1.2,1,2.9,1.9,5.1,2.5c2.1,0.7,4.5,1,7.2,1c3.4,0,6-0.7,7.7-2.1c1.8-1.4,2.7-3.2,2.7-5.6c0-2.4-0.8-4.3-2.5-5.7
			c-1.7-1.4-4.6-2.8-8.9-4.1c-7.3-2.1-12.9-4.6-16.6-7.6c-3.8-2.9-5.6-6.9-5.6-12c0-5,2.1-9.1,6.4-12.3c4.2-3.2,9.6-4.8,16-4.9
			c4.8,0,9.1,0.7,13,2.2c3.9,1.4,7.2,3.4,9.9,5.8V280.6z"/>
		<path fill="#FFFFFF" d="M238.1,268.3v-7.5h25.6v7.5l-6.6,1.3v44.4l6.6,1.3v7.4h-25.6v-7.4l6.6-1.3v-44.4L238.1,268.3z"/>
		<path fill="#FFFFFF" d="M319.7,315.7c-2,2-4.9,3.8-8.8,5.4c-3.9,1.6-8.7,2.4-14.6,2.4c-8.4,0-15.1-2.8-20.4-8.4
			c-5.2-5.6-7.9-12.9-7.9-21.8v-2.1c0-9.3,2.6-16.8,7.7-22.6c5.2-5.8,11.9-8.7,20.2-8.7c4.8,0,9.3,0.8,13.3,2.3
			c4,1.5,7.3,3.6,10,6.3v12.4h-9.2l-1.7-8.3c-1.1-1-2.6-1.7-4.5-2.3c-1.9-0.6-4-0.9-6.4-0.9c-5.4,0-9.6,2-12.6,6
			c-3,4-4.5,9.2-4.5,15.7v2.2c0,6.3,1.5,11.3,4.4,15.1c2.9,3.8,7.2,5.6,12.7,5.6c2.5,0,4.5-0.2,6.1-0.6c1.5-0.4,2.8-0.9,3.6-1.5
			v-10.5l-8.8-0.7V292h21.3V315.7z"/>
		<path fill="#FFFFFF" d="M389,260.8v7.5l-6.6,1.3v53.1h-12.4l-25-41.6l-0.3,0v32.9l6.6,1.3v7.4h-25.6v-7.4l6.6-1.3v-44.4l-6.6-1.3
			v-7.5h6.6h12.4l25,41.6l0.3,0v-32.8l-6.6-1.3v-7.5h19H389z"/>
		<path fill="#FFFFFF" d="M432.9,295.5H412v17.7h20l0.6-7.4h9.4v16.9H393v-7.4l6.6-1.3v-44.4l-6.6-1.3v-7.5h6.6h42.2v16.9h-9.5
			l-0.6-7.4H412v15.5h20.9V295.5z"/>
		<path fill="#FFFFFF" d="M476.3,260.8c7,0,12.5,1.6,16.5,4.8c4,3.2,6,7.6,6,13.3c0,3.1-0.8,5.8-2.5,8.1c-1.7,2.3-4.1,4.1-7.3,5.6
			c3.7,1.1,6.3,2.9,7.9,5.4c1.6,2.5,2.4,5.6,2.4,9.3v3.1c0,1.4,0.3,2.4,0.8,3.2c0.5,0.8,1.4,1.2,2.7,1.3l1.5,0.2v7.5h-6.4
			c-4,0-6.9-1.1-8.5-3.3c-1.6-2.2-2.5-5-2.5-8.4v-3.5c0-3-0.8-5.4-2.4-7.1c-1.6-1.7-3.9-2.6-6.8-2.7h-10.1v16.3l6.6,1.3v7.4h-25.6
			v-7.4l6.6-1.3v-44.4l-6.6-1.3v-7.5h6.6H476.3z M467.5,288.1h8.6c3.5,0,6-0.7,7.8-2.2s2.6-3.6,2.6-6.4s-0.9-5-2.6-6.6
			c-1.7-1.7-4.2-2.5-7.6-2.5h-8.8V288.1z"/>
		<path fill="#FFFFFF" d="M576.6,280.6h-9.3l-1.6-8.5c-1.1-0.7-2.6-1.3-4.7-1.8c-2.1-0.5-4.3-0.8-6.6-0.8c-3.4,0-6,0.7-7.9,2.1
			c-1.9,1.4-2.8,3.3-2.8,5.5c0,2.1,1,3.8,2.9,5.2c1.9,1.3,5.3,2.8,10,4.3c6.8,1.9,12,4.4,15.5,7.5c3.5,3.1,5.3,7.2,5.3,12.3
			c0,5.3-2.1,9.5-6.3,12.5c-4.2,3.1-9.7,4.6-16.6,4.6c-4.9,0-9.3-0.8-13.3-2.3c-3.9-1.6-7.2-3.7-9.9-6.5v-12.9h9.6l1.3,8.8
			c1.2,1,2.9,1.9,5.1,2.5c2.1,0.7,4.5,1,7.2,1c3.4,0,6-0.7,7.7-2.1c1.8-1.4,2.7-3.2,2.7-5.6c0-2.4-0.8-4.3-2.5-5.7
			c-1.7-1.4-4.6-2.8-8.9-4.1c-7.3-2.1-12.9-4.6-16.6-7.6c-3.8-2.9-5.6-6.9-5.6-12c0-5,2.1-9.1,6.4-12.3c4.2-3.2,9.6-4.8,16-4.9
			c4.8,0,9.1,0.7,13,2.2c3.9,1.4,7.2,3.4,9.9,5.8V280.6z"/>
		<path fill="#FFFFFF" d="M582.4,268.3v-7.5H608v7.5l-6.6,1.3v17.8h25.2v-17.8l-6.6-1.3v-7.5h6.6h12.4h6.6v7.5l-6.6,1.3v44.4
			l6.6,1.3v7.4H620v-7.4l6.6-1.3v-17h-25.2v17l6.6,1.3v7.4h-25.6v-7.4l6.6-1.3v-44.4L582.4,268.3z"/>
		<path fill="#FFFFFF" d="M706.9,292.2c0,9.1-2.6,16.5-7.8,22.5c-5.2,5.9-12,8.9-20.3,8.9c-8.4,0-15.1-3-20.2-8.9
			c-5.1-5.9-7.7-13.4-7.7-22.5v-0.9c0-9,2.6-16.5,7.7-22.4c5.1-5.9,11.9-8.9,20.2-8.9c8.4,0,15.2,3,20.4,8.9
			c5.2,5.9,7.8,13.4,7.8,22.4V292.2z M694.5,291.2c0-6.4-1.3-11.6-4-15.6c-2.7-4-6.6-6-11.8-6s-9.1,2-11.7,5.9
			c-2.6,4-3.8,9.2-3.8,15.6v1c0,6.5,1.3,11.8,3.9,15.7c2.6,4,6.5,6,11.7,6c5.2,0,9.2-2,11.8-6c2.6-4,3.9-9.2,3.9-15.7V291.2z"/>
		<path fill="#FFFFFF" d="M741.3,260.8c7.1,0,12.7,1.8,16.7,5.5c4.1,3.6,6.1,8.4,6.1,14.3c0,5.9-2,10.7-6.1,14.3
			c-4.1,3.6-9.7,5.4-16.7,5.4h-10.4v13.7l6.6,1.3v7.4h-25.6v-7.4l6.6-1.3v-44.4l-6.6-1.3v-7.5h6.6H741.3z M730.8,290.7h10.4
			c3.5,0,6.1-0.9,7.8-2.8c1.8-1.9,2.7-4.3,2.7-7.2c0-3-0.9-5.4-2.7-7.4c-1.8-1.9-4.4-2.9-7.8-2.9h-10.4V290.7z"/>
	</g>
</g>
</svg>
