<?xml version="1.0" encoding="utf-8"?>
<!-- Generator: Adobe Illustrator 18.0.0, SVG Export Plug-In . SVG Version: 6.00 Build 0)  -->
<!DOCTYPE svg PUBLIC "-//W3C//DTD SVG 1.1//EN" "http://www.w3.org/Graphics/SVG/1.1/DTD/svg11.dtd">
<svg version="1.1" xmlns="http://www.w3.org/2000/svg" xmlns:xlink="http://www.w3.org/1999/xlink" x="0px" y="0px"
	 viewBox="0 0 117.3 266.7" enable-background="new 0 0 117.3 266.7" xml:space="preserve">
<g id="Layer_1">
	<ellipse fill="#314448" cx="58.7" cy="252.3" rx="58.7" ry="14.3"/>
	<circle fill="#70DCDF" cx="80" cy="57.1" r="4.3"/>
	<circle fill="#70DCDF" cx="72.1" cy="65" r="3.2"/>
	<circle fill="#70DCDF" cx="78.8" cy="72.3" r="2.8"/>
	<path fill="#B6CAD3" d="M95.3,85.3h-1.4c-0.4,3.7-3.5,6.5-7.3,6.5H30.7c-3.8,0-6.9-2.8-7.3-6.5H22c-5.2,0-9.4,4.2-9.4,9.4v152.5
		c0,5.2,4.2,9.4,9.4,9.4h73.3c5.2,0,9.4-4.2,9.4-9.4V94.6C104.7,89.5,100.5,85.3,95.3,85.3z"/>
	<rect x="41.7" y="138" fill="#F6F7F1" width="34" height="54.9"/>
	<rect x="41.7" y="183.2" fill="#969FA8" width="34" height="9.7"/>
	<rect x="63" y="138" fill="#C04B41" width="5.9" height="12.8"/>
	<rect x="48.3" y="138" fill="#2FBEC2" width="5.9" height="12.8"/>
	<rect x="63" y="150.8" fill="#B6CAD3" width="5.9" height="2"/>
	<rect x="48.3" y="150.8" fill="#B6CAD3" width="5.9" height="2"/>
	<path fill="#F6F7F1" d="M95.3,85.3h-1.4c-0.4,3.7-3.5,6.5-7.3,6.5H30.7c-3.8,0-6.9-2.8-7.3-6.5H22c-5.2,0-9.4,4.2-9.4,9.4v6.3
		c0,5.2,4.2,9.4,9.4,9.4h73.3c5.2,0,9.4-4.2,9.4-9.4v-6.3C104.7,89.5,100.5,85.3,95.3,85.3z"/>
	<path fill="#BCE6E5" d="M96.1,38.7c2.8,0,5-2.3,5-5V25c0-2.8-2.3-5-5-5H96V9.4C96,4.2,91.8,0,86.6,0H30.7c-5.2,0-9.4,4.2-9.4,9.4
		V20h-0.1c-2.8,0-5,2.3-5,5v8.6c0,2.8,2.3,5,5,5h0.1V61h-0.1c-2.8,0-5,2.3-5,5v8.6c0,2.8,2.3,5,5,5h0.1v4.7c0,5.2,4.2,9.4,9.4,9.4
		h55.9c5.2,0,9.4-4.2,9.4-9.4v-4.7h0.1c2.8,0,5-2.3,5-5v-8.6c0-2.8-2.3-5-5-5H96V38.7H96.1z M95.1,65c0.6,0,1,0.5,1,1v8.6
		c0,0.6-0.5,1-1,1H92v8.7c0,3-2.4,5.4-5.4,5.4H30.7c-3,0-5.4-2.4-5.4-5.4v-8.7h-3.1c-0.6,0-1-0.5-1-1v-8.6c0-0.6,0.5-1,1-1h3.1V34.7
		h-3.1c-0.6,0-1-0.5-1-1V25c0-0.6,0.5-1,1-1h3.1V9.4c0-3,2.4-5.4,5.4-5.4h55.9c3,0,5.4,2.4,5.4,5.4V24h3.1c0.6,0,1,0.5,1,1v8.6
		c0,0.6-0.5,1-1,1H92V65H95.1z"/>
	<rect x="33.6" y="93.8" fill="#BCE6E5" width="50.1" height="5.5"/>
</g>
<g id="Layer_2">
</g>
</svg>
