<?xml version="1.0" encoding="utf-8"?>
<!-- Generator: Adobe Illustrator 18.0.0, SVG Export Plug-In . SVG Version: 6.00 Build 0)  -->
<!DOCTYPE svg PUBLIC "-//W3C//DTD SVG 1.1//EN" "http://www.w3.org/Graphics/SVG/1.1/DTD/svg11.dtd">
<svg version="1.1" id="Layer_1" xmlns="http://www.w3.org/2000/svg" xmlns:xlink="http://www.w3.org/1999/xlink" x="0px" y="0px"
	 viewBox="245.9 -2.4 350 600" enable-background="new 245.9 -2.4 350 600" xml:space="preserve">
<rect x="245.9" y="-2.4" fill="#ABB6BA" width="350" height="600"/>
<rect x="245.9" y="507.6" fill="#969FA8" width="350" height="90"/>
<g>
	<g>
		<path fill="#2FBEC2" d="M442.6,552.6c-0.1,0-0.2,0-0.3,0c-3.5-0.2-6.1-3.1-6-6.6c0.9-20.1,1.9-36.1,2.7-50.3
			c3.4-59.2,4.3-75.1-6.5-155.9c-0.5-3.4,2-6.6,5.4-7.1c3.4-0.5,6.6,2,7.1,5.4c10.9,82,10,98.1,6.5,158.3
			c-0.8,14.1-1.7,30.2-2.7,50.2C448.8,550,446,552.6,442.6,552.6z"/>
	</g>
	<g>
		<path fill="#2FBEC2" d="M402.1,553.3c-3.1,0-5.8-2.3-6.2-5.5c-10.3-85.7,3.7-163.7,9.7-197.1c1.1-6.4,2.2-12.4,2.4-14.6
			c0.7-1.6,1.5-3,1.7-5c0.3-3.5,4.3-3.8,7.3-2.2c4.4,2.4,3.7,7.3,3.1,11.3c-0.4,3.1-1.2,7.4-2.2,12.8
			c-5.9,32.8-19.7,109.5-9.6,193.3c0.4,3.4-2,6.6-5.5,7C402.6,553.3,402.4,553.3,402.1,553.3z"/>
	</g>
	<g>
		<path fill="#FEDB9A" d="M473.6,334.5l-12.3-2.7c15.2-69.3-16.2-125.7-22.7-136.3l10.7-6.5C456.2,200.3,489.8,260.5,473.6,334.5z"
			/>
	</g>
	<g>
		<path fill="#FEDB9A" d="M387.1,325.7c-6.8-73,0.4-86.9,16.3-117.3c2.5-4.7,5-9.6,7.8-15.2l11.3,5.5c-2.8,5.8-5.5,10.9-7.9,15.4
			c-15.1,29-21.4,41-14.9,110.3L387.1,325.7z"/>
	</g>
	<g>
		<path fill="#3C5458" d="M399.5,251.8l-12.3-2.4c3.1-15.7,8.9-26.9,16.3-41c2.5-4.7,5-9.6,7.8-15.2l11.3,5.5
			c-2.8,5.8-5.5,10.9-7.9,15.4C407.4,227.9,402.2,237.8,399.5,251.8z"/>
	</g>
	<g>
		<path fill="#3C5458" d="M461.3,255.2c-6.5-31.5-19.1-53.6-22.7-59.7l10.7-6.5c3.9,6.5,17.4,30.2,24.3,63.6L461.3,255.2z"/>
	</g>
	<path fill="#314448" d="M456.6,202.5c-3.2-6.5-5.9-11.2-7.3-13.5l-10.7,6.5c3.2,5.2,12.8,22.2,19.6,46.7
		C458.1,227.3,457.5,213.9,456.6,202.5z"/>
	<circle fill="#FEDB9A" cx="465.1" cy="329" r="11.5"/>
	<circle fill="#FEDB9A" cx="396.4" cy="329" r="11.5"/>
	<g>
		<path fill="#3C5458" d="M445.2,341.9l-37.3-5.7c15-97.3,0.4-166.4,0.2-167.1L445,161C445.7,164.1,461.4,237.2,445.2,341.9z"/>
	</g>
	<path fill="#2FBEC2" d="M447.9,322.4l-37.4-4.9c-0.9,7.8-1.3,10.4-2.6,18.7l37.3,5.7C446.6,333.3,447,330.5,447.9,322.4z"/>
	<path fill="#314448" d="M445,161l-36.8,8.1c0,0.2,0.9,4.4,2.1,12.2c8,3.5,17.1,4.5,26.3,2.2c4.2-1,8-2.7,11.5-4.8
		C446.5,168,445.2,161.8,445,161z"/>
	<g>
		<circle fill="#FEDB9A" cx="426.6" cy="133.7" r="40.8"/>
		<path fill="#E5BB77" d="M398.8,145c-5.4-21.5,5.7-43.3,25.3-52c-2.5,0.2-5,0.5-7.5,1.1c-21.9,5.5-35.2,27.7-29.7,49.6
			c4.3,17.1,18.8,28.9,35.4,30.6C411,168.6,402.1,158.3,398.8,145z"/>
		<path fill="#E35928" d="M456.1,105.6c-6.1-6.4-14.2-10.7-23.1-12.2c0,0,0,0,0,0c-4.6-0.7-9.5-0.6-14.3,0.3c0,0,0,0,0,0l0,0
			c-0.7,0.1-1.4,0.2-2.1,0.4c-15.2,3.8-26.3,15.7-29.7,30c0,0.1-0.1,0.2-0.1,0.4c-0.1,0.6-0.2,1.1-0.3,1.7c-0.1,0.4-0.1,0.8-0.2,1.2
			c-0.1,0.5-0.2,1-0.2,1.5c-0.1,0.7-0.1,1.3-0.2,2c0,0.2-0.1,0.5-0.1,0.7c0,0,0,0,0,0c-0.2,4,0.1,8.1,1.2,12.2
			c0.8,3.3,2.1,6.3,3.6,9.2c5-6.1,8.3-13.6,9.2-21.6c0.8-0.2,1.7-0.3,2.5-0.5c12.3-3.1,21.9-11.5,26.9-22.1
			c9.3,8.4,22.2,12.4,35.3,9.8c5.1-6.6,8.2-14.8,8.6-23.3C468.4,99.8,462.7,103.5,456.1,105.6z"/>
		<path fill="#B54724" d="M388.3,148c0.1,0.2,0.2,0.4,0.2,0.6c0.6,1.5,1.2,2.9,2,4.2c3.2-3.9,5.7-8.4,7.3-13.2
			c-2.5-19.6,8.3-38.6,26.1-46.6c-0.4,0-0.8,0-1.2,0.1c-0.2,0-0.5,0.1-0.8,0.1c-1.1,0.1-2.2,0.3-3.3,0.5c0,0,0,0,0,0l0,0
			c-0.7,0.1-1.4,0.2-2.1,0.4c-1.2,0.3-2.4,0.7-3.6,1.1c-0.3,0.1-0.6,0.2-1,0.3c-1,0.4-1.9,0.8-2.8,1.2c-0.2,0.1-0.4,0.2-0.6,0.3
			c-1.1,0.5-2.1,1.1-3.1,1.7c-0.3,0.2-0.6,0.4-0.9,0.6c-0.7,0.5-1.4,0.9-2.1,1.4c-0.3,0.2-0.6,0.4-0.9,0.7c-0.9,0.7-1.7,1.4-2.5,2.1
			c-0.3,0.3-0.6,0.6-0.9,0.9c-0.5,0.5-1,1-1.5,1.5c-0.3,0.4-0.7,0.7-1,1.1c-0.5,0.5-0.9,1.1-1.4,1.7c-0.5,0.7-1,1.3-1.5,2
			c-0.3,0.4-0.6,0.9-0.9,1.4c-0.3,0.5-0.7,1.1-1,1.6c-0.2,0.4-0.4,0.8-0.6,1.2c-0.6,1.1-1.1,2.2-1.5,3.3c-0.1,0.3-0.3,0.6-0.4,0.9
			c-0.3,0.7-0.5,1.3-0.7,2c-0.1,0.3-0.2,0.7-0.3,1.1c-0.2,0.7-0.4,1.3-0.6,2c0,0,0,0.1,0,0.1c-0.2,0.8-0.3,1.6-0.5,2.3
			c0,0.3-0.1,0.5-0.1,0.8c0,0.3-0.1,0.6-0.1,0.9c-0.1,0.9-0.2,1.9-0.3,2.8c0,0.1,0,0.3,0,0.4l0,0c0,0,0,0,0,0c0,0.2,0,0.4,0,0.5
			c0,1,0,2,0,3c0,0.4,0,0.8,0.1,1.2c0.1,0.9,0.1,1.7,0.2,2.6c0,0.4,0.1,0.8,0.2,1.1c0.2,1.2,0.4,2.5,0.7,3.7
			c0.2,0.9,0.5,1.8,0.8,2.7C387.9,146.9,388.1,147.5,388.3,148z"/>
		<path fill="none" stroke="#3C5458" stroke-width="2.8144" stroke-linecap="round" stroke-miterlimit="10" d="M432.5,164.5
			c0,0,12,1.6,17.1-8.3"/>
		<path fill="none" stroke="#E35928" stroke-width="2.8144" stroke-linecap="round" stroke-miterlimit="10" d="M441.1,126.2
			c0,0-9.7-7.2-19-1"/>
		
			<rect x="420.1" y="132.3" transform="matrix(0.9985 -5.417072e-002 5.417072e-002 0.9985 -6.8749 23.5978)" fill="#FFFFFF" stroke="#3C5458" stroke-width="2.8144" stroke-linecap="round" stroke-linejoin="round" stroke-miterlimit="10" width="23.5" height="12.7"/>
		
			<rect x="450.1" y="130.6" transform="matrix(0.9985 -5.417072e-002 5.417072e-002 0.9985 -6.7428 25.2189)" fill="#FFFFFF" stroke="#3C5458" stroke-width="2.8144" stroke-linecap="round" stroke-linejoin="round" stroke-miterlimit="10" width="23.5" height="12.7"/>
	</g>
	<polygon fill="#FFCE41" points="438.8,205.5 441.4,213.3 449.6,213.3 442.9,218.1 445.5,225.9 438.8,221.1 432.2,225.9 
		434.7,218.1 428.1,213.3 436.3,213.3 	"/>
</g>
</svg>
