<?xml version="1.0" encoding="utf-8"?>
<!-- Generator: Adobe Illustrator 19.0.1, SVG Export Plug-In . SVG Version: 6.00 Build 0)  -->
<svg version="1.1" id="Layer_1" xmlns="http://www.w3.org/2000/svg" xmlns:xlink="http://www.w3.org/1999/xlink" x="0px" y="0px"
	 viewBox="-197 220.9 200 400" style="enable-background:new -197 220.9 200 400;" xml:space="preserve">
<style type="text/css">
	.st0{fill:#ABB6BA;}
	.st1{fill:#969FA8;}
	.st2{fill:#2FBEC2;}
	.st3{fill:#FEDB9A;}
	.st4{fill:#3C5458;}
	.st5{fill:#314448;}
	.st6{fill:#E5BB77;}
	.st7{fill:#E35928;}
	.st8{fill:#B54724;}
	.st9{fill:none;stroke:#3C5458;stroke-width:2.8144;stroke-linecap:round;stroke-miterlimit:10;}
	.st10{fill:none;stroke:#E35928;stroke-width:2.8144;stroke-linecap:round;stroke-miterlimit:10;}
	.st11{fill:#FFFFFF;stroke:#3C5458;stroke-width:2.8144;stroke-linecap:round;stroke-linejoin:round;stroke-miterlimit:10;}
	.st12{fill:#FFCE41;}
</style>
<rect x="-197" y="220.9" class="st0" width="200" height="400"/>
<rect x="-195.4" y="560.9" class="st1" width="200" height="60"/>
<g>
	<g>
		<path class="st2" d="M-82.6,592.5c-0.1,0-0.1,0-0.2,0c-2.3-0.1-4.1-2.1-4-4.4c0.6-13.4,1.3-24.1,1.8-33.6
			c2.3-39.5,2.9-50.1-4.3-104.1c-0.3-2.3,1.3-4.4,3.6-4.7s4.4,1.3,4.7,3.6c7.3,54.7,6.7,65.5,4.3,105.7c-0.5,9.4-1.1,20.2-1.8,33.5
			C-78.4,590.7-80.3,592.5-82.6,592.5z"/>
	</g>
	<g>
		<path class="st2" d="M-109.6,592.9c-2.1,0-3.9-1.5-4.1-3.7c-6.9-57.2,2.5-109.3,6.5-131.6c0.7-4.3,1.5-8.3,1.6-9.7
			c0.5-1.1,1-2,1.1-3.3c0.2-2.3,2.9-2.5,4.9-1.5c2.9,1.6,2.5,4.9,2.1,7.5c-0.3,2.1-0.8,4.9-1.5,8.5c-3.9,21.9-13.1,73.1-6.4,129
			c0.3,2.3-1.3,4.4-3.7,4.7C-109.3,592.9-109.4,592.9-109.6,592.9z"/>
	</g>
	<g>
		<path class="st3" d="M-61.9,446.9l-8.2-1.8c10.1-46.3-10.8-83.9-15.2-91l7.1-4.3C-73.5,357.3-51.1,397.5-61.9,446.9z"/>
	</g>
	<g>
		<path class="st3" d="M-119.6,441c-4.5-48.7,0.3-58,10.9-78.3c1.7-3.1,3.3-6.4,5.2-10.1l7.5,3.7c-1.9,3.9-3.7,7.3-5.3,10.3
			c-10.1,19.4-14.3,27.4-9.9,73.6L-119.6,441z"/>
	</g>
	<g>
		<path class="st4" d="M-111.3,391.7l-8.2-1.6c2.1-10.5,5.9-18,10.9-27.4c1.7-3.1,3.3-6.4,5.2-10.1l7.5,3.7
			c-1.9,3.9-3.7,7.3-5.3,10.3C-106.1,375.7-109.5,382.4-111.3,391.7z"/>
	</g>
	<g>
		<path class="st4" d="M-70.1,394c-4.3-21-12.7-35.8-15.2-39.8l7.1-4.3c2.6,4.3,11.6,20.2,16.2,42.5L-70.1,394z"/>
	</g>
	<path class="st5" d="M-73.2,358.8c-2.1-4.3-3.9-7.5-4.9-9l-7.1,4.3c2.1,3.5,8.5,14.8,13.1,31.2C-72.2,375.3-72.6,366.4-73.2,358.8z
		"/>
	<circle class="st3" cx="-67.5" cy="443.2" r="7.7"/>
	<circle class="st3" cx="-113.4" cy="443.2" r="7.7"/>
	<g>
		<path class="st4" d="M-80.8,451.8l-24.9-3.8c10-64.9,0.3-111.1,0.1-111.5l24.6-5.4C-80.5,333.2-70,382-80.8,451.8z"/>
	</g>
	<path class="st2" d="M-79,438.8l-25-3.3c-0.6,5.2-0.9,6.9-1.7,12.5l24.9,3.8C-79.9,446.1-79.6,444.2-79,438.8z"/>
	<path class="st5" d="M-81,331.1l-24.6,5.4c0,0.1,0.6,2.9,1.4,8.1c5.3,2.3,11.4,3,17.6,1.5c2.8-0.7,5.3-1.8,7.7-3.2
		C-80,335.8-80.8,331.6-81,331.1z"/>
	<g>
		<circle class="st3" cx="-93.2" cy="312.9" r="27.2"/>
		<path class="st6" d="M-111.8,320.4c-3.6-14.4,3.8-28.9,16.9-34.7c-1.7,0.1-3.3,0.3-5,0.7c-14.6,3.7-23.5,18.5-19.8,33.1
			c2.9,11.4,12.5,19.3,23.6,20.4C-103.7,336.2-109.6,329.3-111.8,320.4z"/>
		<path class="st7" d="M-73.6,294.1c-4.1-4.3-9.5-7.1-15.4-8.1l0,0c-3.1-0.5-6.3-0.4-9.5,0.2l0,0l0,0c-0.5,0.1-0.9,0.1-1.4,0.3
			c-10.1,2.5-17.6,10.5-19.8,20c0,0.1-0.1,0.1-0.1,0.3c-0.1,0.4-0.1,0.7-0.2,1.1c-0.1,0.3-0.1,0.5-0.1,0.8c-0.1,0.3-0.1,0.7-0.1,1
			c-0.1,0.5-0.1,0.9-0.1,1.3c0,0.1-0.1,0.3-0.1,0.5l0,0c-0.1,2.7,0.1,5.4,0.8,8.1c0.5,2.2,1.4,4.2,2.4,6.1c3.3-4.1,5.5-9.1,6.1-14.4
			c0.5-0.1,1.1-0.2,1.7-0.3c8.2-2.1,14.6-7.7,18-14.8c6.2,5.6,14.8,8.3,23.6,6.5c3.4-4.4,5.5-9.9,5.7-15.6
			C-65.3,290.2-69.1,292.7-73.6,294.1z"/>
		<path class="st8" d="M-118.8,322.4c0.1,0.1,0.1,0.3,0.1,0.4c0.4,1,0.8,1.9,1.3,2.8c2.1-2.6,3.8-5.6,4.9-8.8
			c-1.7-13.1,5.5-25.8,17.4-31.1c-0.3,0-0.5,0-0.8,0.1c-0.1,0-0.3,0.1-0.5,0.1c-0.7,0.1-1.5,0.2-2.2,0.3l0,0l0,0
			c-0.5,0.1-0.9,0.1-1.4,0.3c-0.8,0.2-1.6,0.5-2.4,0.7c-0.2,0.1-0.4,0.1-0.7,0.2c-0.7,0.3-1.3,0.5-1.9,0.8c-0.1,0.1-0.3,0.1-0.4,0.2
			c-0.7,0.3-1.4,0.7-2.1,1.1c-0.2,0.1-0.4,0.3-0.6,0.4c-0.5,0.3-0.9,0.6-1.4,0.9c-0.2,0.1-0.4,0.3-0.6,0.5c-0.6,0.5-1.1,0.9-1.7,1.4
			c-0.2,0.2-0.4,0.4-0.6,0.6c-0.3,0.3-0.7,0.7-1,1c-0.2,0.3-0.5,0.5-0.7,0.7c-0.3,0.3-0.6,0.7-0.9,1.1c-0.3,0.5-0.7,0.9-1,1.3
			c-0.2,0.3-0.4,0.6-0.6,0.9c-0.2,0.3-0.5,0.7-0.7,1.1c-0.1,0.3-0.3,0.5-0.4,0.8c-0.4,0.7-0.7,1.5-1,2.2c-0.1,0.2-0.2,0.4-0.3,0.6
			c-0.2,0.5-0.3,0.9-0.5,1.3c-0.1,0.2-0.1,0.5-0.2,0.7c-0.1,0.5-0.3,0.9-0.4,1.3v0.1c-0.1,0.5-0.2,1.1-0.3,1.5
			c0,0.2-0.1,0.3-0.1,0.5s-0.1,0.4-0.1,0.6c-0.1,0.6-0.1,1.3-0.2,1.9c0,0.1,0,0.2,0,0.3l0,0l0,0c0,0.1,0,0.3,0,0.3c0,0.7,0,1.3,0,2
			c0,0.3,0,0.5,0.1,0.8c0.1,0.6,0.1,1.1,0.1,1.7c0,0.3,0.1,0.5,0.1,0.7c0.1,0.8,0.3,1.7,0.5,2.5c0.1,0.6,0.3,1.2,0.5,1.8
			C-119.1,321.7-118.9,322.1-118.8,322.4z"/>
		<path class="st9" d="M-89.3,333.4c0,0,8,1.1,11.4-5.5"/>
		<path class="st10" d="M-83.6,307.9c0,0-6.5-4.8-12.7-0.7"/>
		
			<rect x="-97.6" y="311.9" transform="matrix(-0.9985 5.417243e-02 -5.417243e-02 -0.9985 -162.2322 636.7317)" class="st11" width="15.7" height="8.5"/>
		
			<rect x="-77.6" y="310.8" transform="matrix(-0.9985 5.417243e-02 -5.417243e-02 -0.9985 -122.2798 633.3773)" class="st11" width="15.7" height="8.5"/>
	</g>
	<polygon class="st12" points="-85.1,360.8 -83.4,366 -77.9,366 -82.4,369.2 -80.6,374.4 -85.1,371.2 -89.5,374.4 -87.8,369.2 
		-92.2,366 -86.8,366 	"/>
</g>
</svg>
