<?xml version="1.0" encoding="utf-8"?>
<!-- Generator: Adobe Illustrator 18.0.0, SVG Export Plug-In . SVG Version: 6.00 Build 0)  -->
<!DOCTYPE svg PUBLIC "-//W3C//DTD SVG 1.1//EN" "http://www.w3.org/Graphics/SVG/1.1/DTD/svg11.dtd">
<svg version="1.1" id="Layer_1" xmlns="http://www.w3.org/2000/svg" xmlns:xlink="http://www.w3.org/1999/xlink" x="0px" y="0px"
	 viewBox="0 0 230 486" enable-background="new 0 0 230 486" xml:space="preserve">
<g>
	<line fill="none" stroke="#3C5458" stroke-width="2.7746" stroke-miterlimit="10" x1="4.9" y1="111" x2="100.2" y2="260.7"/>
	<line fill="none" stroke="#3C5458" stroke-width="2.7746" stroke-miterlimit="10" x1="64.8" y1="107.7" x2="106.5" y2="269.4"/>
	<line fill="none" stroke="#3C5458" stroke-width="2.7746" stroke-miterlimit="10" x1="165" y1="107.7" x2="109.2" y2="270.9"/>
	<line fill="none" stroke="#3C5458" stroke-width="2.7746" stroke-miterlimit="10" x1="220.7" y1="111" x2="116" y2="260.7"/>
	<g>
		<path fill="#3C5458" d="M117.2,327.2c-15.2-10-23.9-22.6-25.7-37.4c-3.1-24.9,14.9-45.1,16.9-47.4l18.4,16.9l-9.2-8.5l9.2,8.4
			c-3.4,3.8-12,16.1-10.5,27.5c0.9,7.2,5.7,13.6,14.6,19.4L117.2,327.2z"/>
	</g>
	<g>
		<path fill="#2FBEC2" d="M224.7,413.8c-0.1,0-0.3,0-0.4,0c-2.3-0.2-3.9-2.3-3.7-4.6c3.7-35.1-1.8-58.2-15.5-64.9
			c-11.9-5.9-30.2,1.1-48.7,18.8c-1.7,1.6-4.3,1.5-5.9-0.2c-1.6-1.7-1.5-4.3,0.2-5.9c21.5-20.4,42.7-27.8,58.1-20.2
			c12,5.9,25.3,23.5,20.1,73.3C228.6,412.3,226.8,413.8,224.7,413.8z"/>
	</g>
	<g>
		<path fill="#2FBEC2" d="M134.5,485.5c-1,0-1.9-0.3-2.7-1c-1.7-1.5-1.9-4.1-0.4-5.9c19.7-22.7,27.3-47.8,22.6-74.5
			c-3.6-20.1-13.2-33.7-13.3-33.8c-1.3-1.9-0.9-4.5,0.9-5.8c1.9-1.3,4.5-0.9,5.8,0.9c0.4,0.6,10.7,15,14.7,36.9
			c3.7,20.2,2.5,50.8-24.4,81.8C136.9,485,135.7,485.5,134.5,485.5z"/>
	</g>
	<g>
		<path fill="#FEDB9A" d="M144.8,273.6c-11.9,0-20.9-1.9-21.7-2l1.7-8.1c0.4,0.1,36.6,7.5,58.7-8.5c9.6-7,15.3-17.6,16.8-31.5
			l8.3,0.9c-1.8,16.4-8.6,29-20.2,37.4C175.1,271.3,158.2,273.6,144.8,273.6z"/>
	</g>
	<g>
		<path fill="#FEDB9A" d="M102.4,269.3c-11.1,0-32.6-2.1-48.7-16.4c-13.1-11.7-19.8-28.9-19.8-51.2h8.3c0,19.8,5.7,34.9,16.9,44.9
			c19.4,17.3,49.3,14.1,49.6,14.1l1,8.3C109.3,269,106.6,269.3,102.4,269.3z"/>
	</g>
	<g>
		<path fill="#D85649" d="M102.4,269.3c-11.2,0-32.8-2.1-49-16.7l5.6-6.2c19.5,17.5,49.5,14.3,49.8,14.2l1,8.3
			C109.3,269,106.6,269.3,102.4,269.3z"/>
	</g>
	<circle fill="#FEDB9A" cx="38" cy="196.8" r="9.2"/>
	<circle fill="#FEDB9A" cx="204.5" cy="221.9" r="9.2"/>
	<path fill="#9ABE28" d="M223.6,113.3c2-6.8,3.2-13.9,3.2-21.2c0-50.6-50.8-91.7-113.4-91.7C50.8,0.5,0,41.6,0,92.2
		c0,7.3,1.2,14.4,3.2,21.2H223.6z"/>
	<g>
		<path fill="#BDE634" d="M112.1,0.6c-40,0.9-72.3,41.5-72.3,91.6c0,7.3,0.8,14.4,2,21.2h49.1c-0.4-6.8-0.6-13.9-0.6-21.2
			C90.3,43.2,100,3.2,112.1,0.6z"/>
		<path fill="#BDE634" d="M114.7,0.6c12.2,2.7,21.8,42.7,21.8,91.6c0,7.3-0.2,14.4-0.6,21.2h49.1c1.3-6.8,2-13.9,2-21.2
			C187,42.1,154.7,1.4,114.7,0.6z"/>
	</g>
	<path fill="none" stroke="#FAAF40" stroke-width="8.3237" stroke-miterlimit="10" d="M39.9,202.2"/>
	<g>
		<path fill="#D85649" d="M144.8,273.6c-12,0-21-1.9-21.6-2l1.7-8.1l-0.9,4.1l0.9-4.1c0.2,0.1,23.8,4.9,44.5-1.6l2.5,7.9
			C162.6,272.7,153,273.6,144.8,273.6z"/>
	</g>
	<path fill="#913830" d="M135.7,273.4c-0.3-2.9-0.6-5.7-0.8-8.4c-6-0.5-9.9-1.3-10-1.3l-0.9,4.1l0.9-4.1l-1.7,8.1
		C123.6,271.9,128.5,272.9,135.7,273.4z"/>
	<g>
		<path fill="#D85649" d="M143.9,375.7c-38.4-38.1-38.8-127.3-38.8-131h25h-12.5l12.5,0c0,22.9,5.7,87.8,31.4,113.3L143.9,375.7z"/>
	</g>
	<path fill="#913830" d="M130.1,244.7l-12.5,0h-12.5c0,0.7,0,4.4,0.3,10.2c3.6,1.8,7.7,2.8,12,2.8c4.7,0,9.1-1.2,13-3.3
		C130.2,250.6,130.1,247.3,130.1,244.7z"/>
	<g>
		<path fill="#2FBEC2" d="M143.9,375.7c-4.6-4.6-8.8-10-12.7-16.3l21.3-13c2.8,4.5,5.8,8.4,8.9,11.6L143.9,375.7z"/>
	</g>
	<g>
		<circle fill="#FEDB9A" cx="117.8" cy="223.9" r="27.2"/>
		<path fill="#E5BB77" d="M98.7,229.8c-2.3-14.6,6.4-28.4,19.9-33c-1.7,0-3.3,0-5,0.3c-14.8,2.3-25,16.3-22.7,31.1
			c1.8,11.6,10.8,20.3,21.7,22.5C105.4,246.2,100.1,238.8,98.7,229.8z"/>
		<path fill="#E35928" d="M139.1,207c-3.7-4.6-8.8-8-14.6-9.5c0,0,0,0,0,0c-3-0.8-6.2-1-9.5-0.7c0,0,0,0,0,0l0,0
			c-0.5,0-0.9,0.1-1.4,0.1c-10.3,1.6-18.4,8.9-21.5,18.1c0,0.1-0.1,0.2-0.1,0.2c-0.1,0.4-0.2,0.7-0.3,1.1c-0.1,0.3-0.1,0.5-0.2,0.8
			c-0.1,0.3-0.2,0.6-0.2,1c-0.1,0.4-0.2,0.9-0.2,1.3c0,0.2-0.1,0.3-0.1,0.5c0,0,0,0,0,0c-0.4,2.6-0.4,5.4,0,8.2
			c0.3,2.2,1,4.3,1.8,6.3c3.7-3.7,6.3-8.5,7.4-13.8c0.6-0.1,1.1-0.1,1.7-0.2c8.4-1.3,15.2-6.3,19.2-13.1c5.7,6.1,14,9.6,22.8,8.6
			c3.8-4.1,6.3-9.3,7.1-15C147.6,203.9,143.6,206,139.1,207z"/>
		<path fill="#B54724" d="M91.6,231.1c0,0.1,0.1,0.3,0.1,0.4c0.3,1,0.6,2,1,2.9c2.4-2.4,4.3-5.2,5.6-8.3
			c-0.5-13.2,7.8-25.1,20.1-29.4c-0.3,0-0.5,0-0.8,0c-0.2,0-0.3,0-0.5,0c-0.7,0-1.5,0.1-2.2,0.1c0,0,0,0,0,0l0,0
			c-0.5,0-0.9,0.1-1.4,0.1c-0.8,0.1-1.6,0.3-2.4,0.5c-0.2,0.1-0.4,0.1-0.7,0.2c-0.7,0.2-1.3,0.4-1.9,0.6c-0.1,0.1-0.3,0.1-0.4,0.1
			c-0.7,0.3-1.4,0.6-2.1,0.9c-0.2,0.1-0.4,0.2-0.6,0.3c-0.5,0.3-1,0.5-1.5,0.8c-0.2,0.1-0.4,0.3-0.6,0.4c-0.6,0.4-1.2,0.8-1.8,1.2
			c-0.2,0.2-0.4,0.4-0.7,0.5c-0.4,0.3-0.7,0.6-1.1,0.9c-0.3,0.2-0.5,0.5-0.8,0.7c-0.3,0.3-0.7,0.7-1,1c-0.4,0.4-0.7,0.8-1.1,1.2
			c-0.2,0.3-0.5,0.6-0.7,0.8c-0.3,0.3-0.5,0.7-0.7,1c-0.2,0.2-0.3,0.5-0.5,0.7c-0.4,0.7-0.8,1.4-1.2,2.1c-0.1,0.2-0.2,0.4-0.3,0.6
			c-0.2,0.4-0.4,0.9-0.6,1.3c-0.1,0.2-0.2,0.5-0.3,0.7c-0.2,0.4-0.3,0.9-0.5,1.3c0,0,0,0.1,0,0.1c-0.2,0.5-0.3,1-0.5,1.5
			c0,0.2-0.1,0.3-0.1,0.5c0,0.2-0.1,0.4-0.1,0.6c-0.1,0.6-0.3,1.2-0.4,1.9c0,0.1,0,0.2-0.1,0.3l0,0c0,0,0,0,0,0c0,0.1,0,0.2,0,0.4
			c-0.1,0.7-0.2,1.3-0.2,2c0,0.3,0,0.6,0,0.8c0,0.6,0,1.2,0,1.7c0,0.3,0,0.5,0,0.8c0.1,0.8,0.1,1.7,0.3,2.5c0.1,0.6,0.2,1.2,0.4,1.8
			C91.4,230.4,91.5,230.8,91.6,231.1z"/>
		<path fill="none" stroke="#3C5458" stroke-width="2.7917" stroke-linecap="round" stroke-miterlimit="10" d="M119.9,244.7
			c0,0,7.9,1.8,11.8-4.5"/>
		<path fill="none" stroke="#E35928" stroke-width="2.7917" stroke-linecap="round" stroke-miterlimit="10" d="M127.9,219.8
			c0,0-6-5.4-12.5-1.8"/>
		
			<rect x="113.2" y="223.3" transform="matrix(0.9994 3.568840e-002 -3.568840e-002 0.9994 8.1962 -4.1741)" fill="#FFFFFF" stroke="#3C5458" stroke-width="2.7917" stroke-linecap="round" stroke-linejoin="round" stroke-miterlimit="10" width="15.7" height="8.5"/>
		
			<rect x="133.2" y="224" transform="matrix(0.9994 3.568840e-002 -3.568840e-002 0.9994 8.2344 -4.8871)" fill="#FFFFFF" stroke="#3C5458" stroke-width="2.7917" stroke-linecap="round" stroke-linejoin="round" stroke-miterlimit="10" width="15.7" height="8.5"/>
	</g>
</g>
</svg>
