<?xml version="1.0" encoding="utf-8"?>
<!-- Generator: Adobe Illustrator 19.0.1, SVG Export Plug-In . SVG Version: 6.00 Build 0)  -->
<svg version="1.1" id="Layer_1" xmlns="http://www.w3.org/2000/svg" xmlns:xlink="http://www.w3.org/1999/xlink" x="0px" y="0px"
	 viewBox="-182 177.9 230 486" style="enable-background:new -182 177.9 230 486;" xml:space="preserve">
<style type="text/css">
	.st0{fill:#F27325;}
	.st1{fill:#F89E3E;}
	.st2{fill:#2FBEC2;}
	.st3{fill:#FEDB9A;}
	.st4{fill:#3C5458;}
	.st5{fill:none;stroke:#FAAF40;stroke-width:8.3237;stroke-miterlimit:10;}
	.st6{fill:#314448;}
	.st7{fill:#E5BB77;}
	.st8{fill:#E35928;}
	.st9{fill:#B54724;}
	.st10{fill:none;stroke:#3C5458;stroke-width:2.7917;stroke-linecap:round;stroke-miterlimit:10;}
	.st11{fill:none;stroke:#E35928;stroke-width:2.7917;stroke-linecap:round;stroke-miterlimit:10;}
	.st12{fill:#FFFFFF;stroke:#3C5458;stroke-width:2.7917;stroke-linecap:round;stroke-linejoin:round;stroke-miterlimit:10;}
	.st13{fill:#FFCE41;}
</style>
<g>
	<path class="st0" d="M-34.2,483.3c0,0-7.5,0.5-7.9,11.6c-0.4,12.3,16.5,11.5,11.7,23.4c12.2-14.3,11.9-17.9,7.6-25.5
		S-34.2,483.3-34.2,483.3z"/>
	<path class="st1" d="M-34.3,485.5c0,0-4.2,0.3-4.4,6.5c-0.2,7,9.3,6.5,6.6,13.2c6.9-8.1,6.7-10.1,4.3-14.4S-34.3,485.5-34.3,485.5z
		"/>
	<path class="st2" d="M-65.1,417.6c0,0-33.1,10.1-27.6,64.4c1.3,12.2,1.6,15.4,1.6,15.4l33.7-9.1L-65.1,417.6z"/>
	<path class="st2" d="M-92.2,464.7c0,0-13.2,4-11,25.7c1,6,1,6,1,6l13.1-3.5L-92.2,464.7z"/>
	<path class="st2" d="M-56.4,456c0,0,13.2-2.8,22.1,17.1c2.5,5.6,2.5,5.6,2.5,5.6l-13.6,3.5L-56.4,456z"/>
	<path class="st0" d="M-94.6,499c0,0-10.9,0.7-11.4,16.7c-0.5,17.9,23.9,16.6,17,33.9c17.6-20.7,17.2-26,10.9-36.9
		C-84.3,501.7-94.6,499-94.6,499z"/>
	<path class="st1" d="M-94.7,502.2c0,0-6.1,0.4-6.4,9.4c-0.3,10.1,13.5,9.4,9.6,19.1c9.9-11.7,9.7-14.6,6.2-20.8
		C-88.8,503.7-94.7,502.2-94.7,502.2z"/>
	<g>
		<path class="st2" d="M-64.8,505.1c-15.2-10-23.9-22.6-25.7-37.4c-3.1-24.9,14.9-45.1,16.9-47.4l18.4,16.9l-9.2-8.5l9.2,8.4
			c-3.4,3.8-12,16.1-10.5,27.5c0.9,7.2,5.7,13.6,14.6,19.4L-64.8,505.1z"/>
	</g>
	<g>
		<path class="st2" d="M42.7,591.7c-0.1,0-0.3,0-0.4,0c-2.3-0.2-3.9-2.3-3.7-4.6c3.7-35.1-1.8-58.2-15.5-64.9
			c-11.9-5.9-30.2,1.1-48.7,18.8c-1.7,1.6-4.3,1.5-5.9-0.2c-1.6-1.7-1.5-4.3,0.2-5.9c21.5-20.4,42.7-27.8,58.1-20.2
			c12,5.9,25.3,23.5,20.1,73.3C46.6,590.2,44.8,591.7,42.7,591.7z"/>
	</g>
	<g>
		<path class="st2" d="M-47.5,663.4c-1,0-1.9-0.3-2.7-1c-1.7-1.5-1.9-4.1-0.4-5.9c19.7-22.7,27.3-47.8,22.6-74.5
			c-3.6-20.1-13.2-33.7-13.3-33.8c-1.3-1.9-0.9-4.5,0.9-5.8c1.9-1.3,4.5-0.9,5.8,0.9c0.4,0.6,10.7,15,14.7,36.9
			c3.7,20.2,2.5,50.8-24.4,81.8C-45.1,662.9-46.3,663.4-47.5,663.4z"/>
	</g>
	<g>
		<path class="st3" d="M-37.2,451.5c-11.9,0-20.9-1.9-21.7-2l1.7-8.1c0.4,0.1,36.6,7.5,58.7-8.5c9.6-7,15.3-17.6,16.8-31.5l8.3,0.9
			c-1.8,16.4-8.6,29-20.2,37.4C-6.9,449.2-23.8,451.5-37.2,451.5z"/>
	</g>
	<g>
		<path class="st3" d="M-79.6,447.2c-11.1,0-32.6-2.1-48.7-16.4c-13.1-11.7-19.8-28.9-19.8-51.2h8.3c0,19.8,5.7,34.9,16.9,44.9
			c19.4,17.3,49.3,14.1,49.6,14.1l1,8.3C-72.7,446.9-75.4,447.2-79.6,447.2z"/>
	</g>
	<g>
		<path class="st4" d="M-79.6,447.2c-11.2,0-32.8-2.1-49-16.7l5.6-6.2c19.5,17.5,49.5,14.3,49.8,14.2l1,8.3
			C-72.7,446.9-75.4,447.2-79.6,447.2z"/>
	</g>
	<circle class="st3" cx="-144" cy="374.7" r="9.2"/>
	<circle class="st3" cx="22.5" cy="399.8" r="9.2"/>
	<path class="st5" d="M-142.1,380.1"/>
	<g>
		<path class="st4" d="M-37.2,451.5c-12,0-21-1.9-21.6-2l1.7-8.1l-0.9,4.1l0.9-4.1c0.2,0.1,23.8,4.9,44.5-1.6l2.5,7.9
			C-19.4,450.6-29,451.5-37.2,451.5z"/>
	</g>
	<path class="st6" d="M-46.3,451.1c-0.3-2.9-0.6-5.7-0.8-8.4c-6-0.5-9.9-1.3-10-1.3l-0.9,4.1l0.9-4.1l-1.7,8.1
		C-58.4,449.6-53.5,450.6-46.3,451.1z"/>
	<g>
		<path class="st4" d="M-38.1,553.6c-38.4-38.1-38.8-127.3-38.8-131h25h-12.5h12.5c0,22.9,5.7,87.8,31.4,113.3L-38.1,553.6z"/>
	</g>
	<path class="st6" d="M-51.9,422.6h-12.5h-12.5c0,0.7,0,4.4,0.3,10.2c3.6,1.8,7.7,2.8,12,2.8c4.7,0,9.1-1.2,13-3.3
		C-51.8,428.5-51.9,425.2-51.9,422.6z"/>
	<g>
		<path class="st2" d="M-38.1,553.6c-4.6-4.6-8.8-10-12.7-16.3l21.3-13c2.8,4.5,5.8,8.4,8.9,11.6L-38.1,553.6z"/>
	</g>
	<g>
		<circle class="st3" cx="-64.2" cy="401.8" r="27.2"/>
		<path class="st7" d="M-83.3,407.7c-2.3-14.6,6.4-28.4,19.9-33c-1.7,0-3.3,0-5,0.3c-14.8,2.3-25,16.3-22.7,31.1
			c1.8,11.6,10.8,20.3,21.7,22.5C-76.6,424.1-81.9,416.7-83.3,407.7z"/>
		<path class="st8" d="M-42.9,384.9c-3.7-4.6-8.8-8-14.6-9.5l0,0c-3-0.8-6.2-1-9.5-0.7l0,0l0,0c-0.5,0-0.9,0.1-1.4,0.1
			c-10.3,1.6-18.4,8.9-21.5,18.1c0,0.1-0.1,0.2-0.1,0.2c-0.1,0.4-0.2,0.7-0.3,1.1c-0.1,0.3-0.1,0.5-0.2,0.8c-0.1,0.3-0.2,0.6-0.2,1
			c-0.1,0.4-0.2,0.9-0.2,1.3c0,0.2-0.1,0.3-0.1,0.5l0,0c-0.4,2.6-0.4,5.4,0,8.2c0.3,2.2,1,4.3,1.8,6.3c3.7-3.7,6.3-8.5,7.4-13.8
			c0.6-0.1,1.1-0.1,1.7-0.2c8.4-1.3,15.2-6.3,19.2-13.1c5.7,6.1,14,9.6,22.8,8.6c3.8-4.1,6.3-9.3,7.1-15
			C-34.4,381.8-38.4,383.9-42.9,384.9z"/>
		<path class="st9" d="M-90.4,409c0,0.1,0.1,0.3,0.1,0.4c0.3,1,0.6,2,1,2.9c2.4-2.4,4.3-5.2,5.6-8.3c-0.5-13.2,7.8-25.1,20.1-29.4
			c-0.3,0-0.5,0-0.8,0c-0.2,0-0.3,0-0.5,0c-0.7,0-1.5,0.1-2.2,0.1l0,0l0,0c-0.5,0-0.9,0.1-1.4,0.1c-0.8,0.1-1.6,0.3-2.4,0.5
			c-0.2,0.1-0.4,0.1-0.7,0.2c-0.7,0.2-1.3,0.4-1.9,0.6c-0.1,0.1-0.3,0.1-0.4,0.1c-0.7,0.3-1.4,0.6-2.1,0.9c-0.2,0.1-0.4,0.2-0.6,0.3
			c-0.5,0.3-1,0.5-1.5,0.8c-0.2,0.1-0.4,0.3-0.6,0.4c-0.6,0.4-1.2,0.8-1.8,1.2c-0.2,0.2-0.4,0.4-0.7,0.5c-0.4,0.3-0.7,0.6-1.1,0.9
			c-0.3,0.2-0.5,0.5-0.8,0.7c-0.3,0.3-0.7,0.7-1,1c-0.4,0.4-0.7,0.8-1.1,1.2c-0.2,0.3-0.5,0.6-0.7,0.8c-0.3,0.3-0.5,0.7-0.7,1
			c-0.2,0.2-0.3,0.5-0.5,0.7c-0.4,0.7-0.8,1.4-1.2,2.1c-0.1,0.2-0.2,0.4-0.3,0.6c-0.2,0.4-0.4,0.9-0.6,1.3c-0.1,0.2-0.2,0.5-0.3,0.7
			c-0.2,0.4-0.3,0.9-0.5,1.3v0.1c-0.2,0.5-0.3,1-0.5,1.5c0,0.2-0.1,0.3-0.1,0.5c0,0.2-0.1,0.4-0.1,0.6c-0.1,0.6-0.3,1.2-0.4,1.9
			c0,0.1,0,0.2-0.1,0.3l0,0l0,0c0,0.1,0,0.2,0,0.4c-0.1,0.7-0.2,1.3-0.2,2c0,0.3,0,0.6,0,0.8c0,0.6,0,1.2,0,1.7c0,0.3,0,0.5,0,0.8
			c0.1,0.8,0.1,1.7,0.3,2.5c0.1,0.6,0.2,1.2,0.4,1.8C-90.6,408.3-90.5,408.7-90.4,409z"/>
		<path class="st10" d="M-62.1,422.6c0,0,7.9,1.8,11.8-4.5"/>
		<path class="st11" d="M-54.1,397.7c0,0-6-5.4-12.5-1.8"/>
		
			<rect x="-68.8" y="401.2" transform="matrix(-0.9994 -3.568708e-02 3.568708e-02 -0.9994 -136.3251 808.4656)" class="st12" width="15.7" height="8.5"/>
		
			<rect x="-48.8" y="401.9" transform="matrix(-0.9994 -3.568708e-02 3.568708e-02 -0.9994 -96.3604 810.5797)" class="st12" width="15.7" height="8.5"/>
	</g>
</g>
<polygon class="st13" points="-61.2,444.7 -59.5,449.9 -54,449.9 -58.5,453.1 -56.7,458.3 -61.2,455.1 -65.6,458.3 -63.9,453.1 
	-68.3,449.9 -62.9,449.9 "/>
</svg>
