<?xml version="1.0" encoding="utf-8"?>
<!-- Generator: Adobe Illustrator 18.0.0, SVG Export Plug-In . SVG Version: 6.00 Build 0)  -->
<!DOCTYPE svg PUBLIC "-//W3C//DTD SVG 1.1//EN" "http://www.w3.org/Graphics/SVG/1.1/DTD/svg11.dtd">
<svg version="1.1" id="Layer_1" xmlns="http://www.w3.org/2000/svg" xmlns:xlink="http://www.w3.org/1999/xlink" x="0px" y="0px"
	 viewBox="0 0 121 42.6" enable-background="new 0 0 121 42.6" xml:space="preserve">
<g>
	<g>
		<path fill="#C4AC24" d="M79,26v3.8c0,3.2,8.5,5.8,18.5,5.8S116,33,116,29.8V26H79z"/>
		<ellipse fill="#FFCE41" cx="98" cy="25.8" rx="18.5" ry="5.8"/>
	</g>
	<g>
		<path fill="#C4AC24" d="M83,19v3.8c0,3.2,8.5,5.8,18.5,5.8S120,26,120,22.8V19H83z"/>
		<ellipse fill="#FFCE41" cx="102" cy="18.8" rx="18.5" ry="5.8"/>
	</g>
	<g>
		<path fill="#C4AC24" d="M80,12v3.8c0,3.2,8.5,5.8,18.5,5.8S117,19,117,15.8V12H80z"/>
		<ellipse fill="#FFCE41" cx="99" cy="11.8" rx="18.5" ry="5.8"/>
	</g>
	<g>
		<path fill="#C4AC24" d="M84,6v3.8c0,3.2,8.5,5.8,18.5,5.8S121,13,121,9.8V6H84z"/>
		<ellipse fill="#FFCE41" cx="103" cy="5.8" rx="18.5" ry="5.8"/>
	</g>
	<g>
		<path fill="#C4AC24" d="M0,26v3.8c0,3.2,8.5,5.8,18.5,5.8S37,33,37,29.8V26H0z"/>
		<ellipse fill="#FFCE41" cx="19" cy="25.8" rx="18.5" ry="5.8"/>
	</g>
	<g>
		<path fill="#C4AC24" d="M37,33v3.8c0,3.2,8.5,5.8,18.5,5.8S74,40,74,36.8V33H37z"/>
		<ellipse fill="#FFCE41" cx="56" cy="32.8" rx="18.5" ry="5.8"/>
	</g>
	<g>
		<path fill="#C4AC24" d="M6,20v3.8c0,3.2,8.5,5.8,18.5,5.8S43,27,43,23.8V20H6z"/>
		<ellipse fill="#FFCE41" cx="25" cy="19.8" rx="18.5" ry="5.8"/>
	</g>
	<g>
		<path fill="#C4AC24" d="M2,13v3.8c0,3.2,8.5,5.8,18.5,5.8S39,20,39,16.8V13H2z"/>
		<ellipse fill="#FFCE41" cx="21" cy="12.8" rx="18.5" ry="5.8"/>
	</g>
</g>
</svg>
