<?xml version="1.0" encoding="utf-8"?>
<!-- Generator: Adobe Illustrator 18.0.0, SVG Export Plug-In . SVG Version: 6.00 Build 0)  -->
<!DOCTYPE svg PUBLIC "-//W3C//DTD SVG 1.1//EN" "http://www.w3.org/Graphics/SVG/1.1/DTD/svg11.dtd">
<svg version="1.1" id="Layer_1" xmlns="http://www.w3.org/2000/svg" xmlns:xlink="http://www.w3.org/1999/xlink" x="0px" y="0px"
	 viewBox="0 0 80.5 84.2" enable-background="new 0 0 80.5 84.2" xml:space="preserve">
<path fill="#314448" d="M62.1,79.2c-1.5,0-2.8-0.7-4-2c-0.5-0.6-1.1-1.3-0.9-2.1c0.2-0.8,1-1.1,1.7-1.4c3.4-1.3,6.2-2.2,8.7-3.1
	c1.2-0.4,1.7-0.7,1.7-1.2c0-0.6-0.5-1.6-1.1-2.1c-1.8-1.5-3.8-3-5.6-4.4c-0.9-0.6-1.7-1.3-2.5-1.9c-10.1-7.8-11.6-8.8-13-9.8
	c-1.5-1-3-2.1-13.1-9.9c-7.7-5.9-14.5-11.2-21-16.1c-1.4-1.1-2.3-2.4-2.6-4.1c-0.2-1-0.3-2-0.5-3c-0.2-1.4-0.5-2.8-0.7-4.2
	c-0.3-1.9,0.9-2.3,1.5-2.4c0.3-0.1,0.7-0.1,1-0.1c1.1,0,1.6,0.6,1.9,1.2c0,0,0.8,1.7,0.9,1.9c0.2-1.6,1.3-1.8,1.9-1.8
	c0.7,0,2.2,0,2.6,1.6l0.4,1.6c0.3,1.3,0.7,2.6,1,3.9c0.2,0.6,0.5,1.2,0.8,1.6l2.2,2.6c8.1,6.3,11.3,8.7,14.7,11.3
	c3.9,3,7.9,6,20.3,15.6c0,0,12.3,9.6,15.2,11.8c2.2,1.7,3.5,4.1,3.4,6.6c-0.1,2.5-1.5,4.8-3.9,6.3L72.2,76l-5.9,2.2
	c-0.3,0.1-0.6,0.2-0.8,0.2c-0.4,0.1-0.7,0.2-1,0.3C63.7,79,62.9,79.2,62.1,79.2L62.1,79.2z"/>
<path fill="#FFFFFF" d="M11.5,12.2c0.5,0,0.9,0.2,1.1,0.7c0.8,1.6,1.6,3.3,2.4,4.9c0-1,0.1-1.8,0.1-2.8c0-0.7,0.3-1,1-1c0,0,0,0,0,0
	c0.7,0,1.5-0.2,1.7,0.7c0.5,1.8,0.9,3.6,1.4,5.4c0.2,0.7,0.5,1.3,1,1.8c0.8,0.9,1.5,1.8,2.3,2.7c17.8,13.8,12.2,9.2,35.1,26.9
	c5.1,3.9,10.1,7.9,15.2,11.8c4.2,3.3,4,8.6-0.4,11.6c-0.2,0.1-0.4,0.3-0.6,0.4l-5.8,2.1c-0.6,0.2-1.3,0.3-1.8,0.5
	c-0.8,0.3-1.5,0.5-2.2,0.5c-1.2,0-2.3-0.6-3.3-1.7c-1-1.1-1-1.7,0.4-2.2c2.9-1.1,5.8-2.1,8.7-3c1.1-0.4,2.3-0.9,2.3-2
	c0-0.9-0.7-2.1-1.4-2.7c-2.7-2.2-5.5-4.3-8.2-6.4c-20.2-15.6-5.9-4.2-26.1-19.7c-7-5.4-14-10.8-21-16.1c-1.2-0.9-2-2-2.2-3.5
	c-0.4-2.4-0.8-4.8-1.2-7.2c-0.1-0.7,0-1.3,0.8-1.5C11,12.3,11.3,12.2,11.5,12.2 M11.5,10.5L11.5,10.5c-0.4,0-0.8,0.1-1.2,0.1
	c-1.2,0.3-2.5,1.3-2.1,3.4c0.2,1.4,0.5,2.8,0.7,4.2c0.2,1,0.3,2,0.5,3c0.3,1.9,1.3,3.4,2.9,4.6c6.6,5,13.4,10.3,21,16.1
	c10.1,7.8,11.6,8.9,13.1,9.9c1.4,1,2.9,2,13,9.8c0.8,0.7,1.7,1.3,2.6,1.9c1.9,1.4,3.8,2.9,5.6,4.4c0.4,0.3,0.7,0.9,0.8,1.3
	c-0.1,0.1-0.4,0.3-1.1,0.5c-2.6,0.8-5.3,1.8-8.7,3.1c-0.6,0.2-1.9,0.7-2.2,2c-0.3,1.3,0.6,2.4,1.1,2.9c1.3,1.5,2.9,2.3,4.6,2.3
	c0.9,0,1.9-0.2,2.9-0.7c0.2-0.1,0.5-0.2,0.8-0.2c0.3-0.1,0.6-0.1,0.8-0.2l0,0l0,0l5.8-2.1l0.2-0.1l0.2-0.1l0.2-0.1
	c0.1-0.1,0.3-0.2,0.4-0.3c2.6-1.7,4.1-4.3,4.2-7c0.1-2.7-1.2-5.4-3.7-7.3C71,59.6,68,57.3,65,55c-2.1-1.6-4.2-3.2-6.3-4.9
	c-12.4-9.6-16.4-12.7-20.3-15.6c-3.4-2.5-6.5-4.9-14.6-11.2l-0.9-1l-1.3-1.5c-0.3-0.3-0.5-0.8-0.6-1.2c-0.4-1.3-0.7-2.6-1-3.9
	c-0.1-0.5-0.3-1-0.4-1.6c-0.6-2.2-2.7-2.2-3.4-2.2c-0.6,0-1.3,0.2-1.9,0.7c-0.1-0.1-0.1-0.2-0.2-0.3C13.7,11.1,12.7,10.5,11.5,10.5
	L11.5,10.5z"/>
</svg>
