<?xml version="1.0" encoding="utf-8"?>
<!-- Generator: Adobe Illustrator 18.0.0, SVG Export Plug-In . SVG Version: 6.00 Build 0)  -->
<!DOCTYPE svg PUBLIC "-//W3C//DTD SVG 1.1//EN" "http://www.w3.org/Graphics/SVG/1.1/DTD/svg11.dtd">
<svg version="1.1" id="Layer_1" xmlns="http://www.w3.org/2000/svg" xmlns:xlink="http://www.w3.org/1999/xlink" x="0px" y="0px"
	 viewBox="0 0 363 305.6" enable-background="new 0 0 363 305.6" xml:space="preserve">
<rect x="353.3" y="198.7" fill="#B54724" width="9.7" height="106.9"/>
<rect x="88.4" y="203.9" opacity="0.2" fill="#231F20" width="264.9" height="101.7"/>
<polygon fill="#FF7B46" points="11,131.5 352,131.5 363,196.7 0,196.7 "/>
<rect x="0" y="202.4" fill="#B54724" width="88.4" height="103.3"/>
<rect x="7.3" y="260.5" fill="#BDE634" width="73.8" height="38.6"/>
<rect x="7.3" y="215.4" fill="#BDE634" width="73.8" height="38.6"/>
<ellipse fill="#B54724" cx="183.5" cy="150.4" rx="68" ry="11.8"/>
<rect x="158.6" y="110.2" fill="#969FA8" width="43.8" height="29.7"/>
<polygon fill="#CFCFCD" points="158.6,139.9 202.4,139.9 221.3,152.9 139.6,152.9 "/>
<rect x="139.4" y="152.9" fill="#969FA8" width="82.1" height="2.2"/>
<path fill="#3C5458" d="M258.1,120.5H104.9c-4.1,0-7.3-3.3-7.3-7.3V7.3c0-4.1,3.3-7.3,7.3-7.3h153.2c4.1,0,7.3,3.3,7.3,7.3v105.8
	C265.4,117.2,262.2,120.5,258.1,120.5z"/>
<path fill="#CFCFCD" d="M97.5,112.4c0,4.4,3.6,8,8,8h151.8c4.4,0,8-3.6,8-8v-11.9H97.5V112.4z"/>
<rect x="0" y="196.7" fill="#B54724" width="363" height="9.7"/>
<rect x="132.9" y="166" fill="#CFCFCD" width="97.1" height="19.3"/>
<rect x="136.6" y="167.8" fill="#F6F7F1" width="65.8" height="15.7"/>
<rect x="206.3" y="167.8" fill="#F6F7F1" width="20.6" height="15.7"/>
<rect x="132.9" y="185.4" fill="#969FA8" width="97.1" height="2.2"/>
<rect x="105.3" y="8.2" fill="#314448" width="152.9" height="84.2"/>
</svg>
