<?xml version="1.0" encoding="utf-8"?>
<!-- Generator: Adobe Illustrator 18.0.0, SVG Export Plug-In . SVG Version: 6.00 Build 0)  -->
<!DOCTYPE svg PUBLIC "-//W3C//DTD SVG 1.1//EN" "http://www.w3.org/Graphics/SVG/1.1/DTD/svg11.dtd">
<svg version="1.1" id="Layer_1" xmlns="http://www.w3.org/2000/svg" xmlns:xlink="http://www.w3.org/1999/xlink" x="0px" y="0px"
	 viewBox="0 0 316.5 52.5" enable-background="new 0 0 316.5 52.5" xml:space="preserve">
<g>
	<g opacity="0.2">
		<g>
			<path d="M5.3,46.4l4.9-0.9V12.5l-4.9-0.9V6h18.8v5.5l-4.7,0.9v12.3h4l8.8-12.8l-2.7-0.4V6h18.2v5.5l-5,0.9L31.5,27.5l12.7,18.1
				l4.6,0.8v5.5H30.5v-5.5l2.8-0.4l-8.8-13.3h-5.1v12.7l4.7,0.9v5.5H5.3V46.4z"/>
			<path d="M110.9,11.5l-3.8,0.5l-9.3,39.9h-8.5l-8.4-30.3h-0.2l-8.4,30.3h-8.5L54.4,12l-3.8-0.5V6h16.9v5.5l-4.2,0.7l5.3,25.1
				l0.2,0L77.4,6h6.8l8.7,31.5l0.2,0l5.2-25.1L94,11.5V6h16.9V11.5z"/>
			<path d="M155.6,29.3c0,6.7-1.9,12.3-5.8,16.7c-3.8,4.4-8.9,6.6-15.1,6.6c-6.2,0-11.2-2.2-15-6.6c-3.8-4.4-5.7-9.9-5.7-16.7v-0.7
				c0-6.7,1.9-12.2,5.7-16.6s8.8-6.6,15-6.6c6.2,0,11.3,2.2,15.1,6.6c3.9,4.4,5.8,10,5.8,16.6V29.3z M146.4,28.5c0-4.7-1-8.6-3-11.6
				c-2-3-4.9-4.4-8.8-4.4c-3.9,0-6.8,1.5-8.7,4.4s-2.9,6.8-2.9,11.6v0.8c0,4.8,1,8.7,2.9,11.7c1.9,3,4.8,4.4,8.7,4.4
				c3.9,0,6.8-1.5,8.8-4.4c2-3,2.9-6.8,2.9-11.7V28.5z"/>
			<path d="M159.3,46.4l4.9-0.9V12.5l-4.9-0.9V6h36.5v12.6h-7.1l-0.4-5.5h-15v12.6h16.1v7.1h-16.1v12.6l4.9,0.9v5.5h-19V46.4z"/>
			<path d="M199.1,46.4l4.9-0.9V12.5l-4.9-0.9V6h36.5v12.6h-7.1l-0.4-5.5h-15v12.6h16.1v7.1h-16.1v12.6l4.9,0.9v5.5h-19V46.4z"/>
			<path d="M268.6,31.7h-15.5v13.1h14.8l0.4-5.5h7v12.5H239v-5.5l4.9-0.9V12.5l-4.9-0.9V6h4.9h31.4v12.6h-7.1l-0.4-5.5h-14.7v11.5
				h15.5V31.7z"/>
			<path d="M309.8,31.7h-15.5v13.1h14.8l0.4-5.5h7v12.5h-36.3v-5.5l4.9-0.9V12.5l-4.9-0.9V6h4.9h31.4v12.6h-7.1l-0.4-5.5h-14.7v11.5
				h15.5V31.7z"/>
		</g>
	</g>
	<g>
		<g>
			<path fill="#FFFFFF" d="M0,41l4.9-0.9V7.2L0,6.2V0.7h18.8v5.5l-4.7,0.9v12.3h4l8.8-12.8l-2.7-0.4V0.7h18.2v5.5l-5,0.9L26.1,22.1
				l12.7,18.1l4.6,0.8v5.5H25.2V41l2.8-0.4l-8.8-13.3h-5.1v12.7l4.7,0.9v5.5H0V41z"/>
			<path fill="#FFFFFF" d="M105.6,6.2l-3.8,0.5l-9.3,39.9H84l-8.4-30.3h-0.2l-8.4,30.3h-8.5L49,6.7l-3.8-0.5V0.7h16.9v5.5L58,6.9
				l5.3,25.1l0.2,0L72,0.7h6.8l8.7,31.5l0.2,0l5.2-25.1l-4.2-0.7V0.7h16.9V6.2z"/>
			<path fill="#FFFFFF" d="M150.2,24c0,6.7-1.9,12.3-5.8,16.7c-3.8,4.4-8.9,6.6-15.1,6.6c-6.2,0-11.2-2.2-15-6.6
				c-3.8-4.4-5.7-9.9-5.7-16.7v-0.7c0-6.7,1.9-12.2,5.7-16.6s8.8-6.6,15-6.6c6.2,0,11.3,2.2,15.1,6.6c3.9,4.4,5.8,10,5.8,16.6V24z
				 M141.1,23.2c0-4.7-1-8.6-3-11.6c-2-3-4.9-4.4-8.8-4.4s-6.7,1.5-8.7,4.4s-2.9,6.8-2.9,11.6V24c0,4.8,1,8.7,2.9,11.7
				c1.9,3,4.8,4.4,8.7,4.4c3.9,0,6.8-1.5,8.8-4.4c2-3,2.9-6.8,2.9-11.7V23.2z"/>
			<path fill="#FFFFFF" d="M153.9,41l4.9-0.9V7.2l-4.9-0.9V0.7h36.5v12.6h-7.1L183,7.8h-15v12.6h16.1v7.1H168v12.6l4.9,0.9v5.5h-19
				V41z"/>
			<path fill="#FFFFFF" d="M193.8,41l4.9-0.9V7.2l-4.9-0.9V0.7h36.5v12.6h-7.1l-0.4-5.5h-15v12.6h16.1v7.1h-16.1v12.6l4.9,0.9v5.5
				h-19V41z"/>
			<path fill="#FFFFFF" d="M263.3,26.4h-15.5v13.1h14.8L263,34h7v12.5h-36.3V41l4.9-0.9V7.2l-4.9-0.9V0.7h4.9h31.4v12.6h-7.1
				l-0.4-5.5h-14.7v11.5h15.5V26.4z"/>
			<path fill="#FFFFFF" d="M304.5,26.4H289v13.1h14.8l0.4-5.5h7v12.5h-36.3V41l4.9-0.9V7.2l-4.9-0.9V0.7h4.9h31.4v12.6h-7.1
				l-0.4-5.5H289v11.5h15.5V26.4z"/>
		</g>
	</g>
</g>
</svg>
