<?xml version="1.0" encoding="utf-8"?>
<!-- Generator: Adobe Illustrator 18.0.0, SVG Export Plug-In . SVG Version: 6.00 Build 0)  -->
<!DOCTYPE svg PUBLIC "-//W3C//DTD SVG 1.1//EN" "http://www.w3.org/Graphics/SVG/1.1/DTD/svg11.dtd">
<svg version="1.1" id="Layer_1" xmlns="http://www.w3.org/2000/svg" xmlns:xlink="http://www.w3.org/1999/xlink" x="0px" y="0px"
	 viewBox="0 0 1140 772.9" enable-background="new 0 0 1140 772.9" xml:space="preserve">
<g>
	<path fill="#A14037" d="M1039.8,263.5h-90c-2.8,0-5-2.3-5-5v-40c0-2.8,2.3-5,5-5h90c2.8,0,5,2.3,5,5v40
		C1044.8,261.2,1042.6,263.5,1039.8,263.5z"/>
	<path fill="#A14037" d="M1094.5,323.5h-90c-2.8,0-5-2.3-5-5v-40c0-2.8,2.3-5,5-5h90c2.8,0,5,2.3,5,5v40
		C1099.5,321.2,1097.3,323.5,1094.5,323.5z"/>
	<path fill="#A14037" d="M984.5,323.5h-90c-2.8,0-5-2.3-5-5v-40c0-2.8,2.3-5,5-5h90c2.8,0,5,2.3,5,5v40
		C989.5,321.2,987.3,323.5,984.5,323.5z"/>
	<path fill="#A14037" d="M984.5,443.5h-90c-2.8,0-5-2.3-5-5v-40c0-2.8,2.3-5,5-5h90c2.8,0,5,2.3,5,5v40
		C989.5,441.2,987.3,443.5,984.5,443.5z"/>
	<path fill="#A14037" d="M1039.8,383.5h-90c-2.8,0-5-2.3-5-5v-40c0-2.8,2.3-5,5-5h90c2.8,0,5,2.3,5,5v40
		C1044.8,381.2,1042.6,383.5,1039.8,383.5z"/>
</g>
<g>
	<path fill="#A14037" d="M584.8,383.5h-90c-2.8,0-5-2.3-5-5v-40c0-2.8,2.3-5,5-5h90c2.8,0,5,2.3,5,5v40
		C589.8,381.2,587.6,383.5,584.8,383.5z"/>
	<path fill="#A14037" d="M639.5,443.5h-90c-2.8,0-5-2.3-5-5v-40c0-2.8,2.3-5,5-5h90c2.8,0,5,2.3,5,5v40
		C644.5,441.2,642.2,443.5,639.5,443.5z"/>
	<path fill="#A14037" d="M529.5,443.5h-90c-2.8,0-5-2.3-5-5v-40c0-2.8,2.3-5,5-5h90c2.8,0,5,2.3,5,5v40
		C534.5,441.2,532.2,443.5,529.5,443.5z"/>
	<path fill="#A14037" d="M529.5,563.5h-90c-2.8,0-5-2.3-5-5v-40c0-2.8,2.3-5,5-5h90c2.8,0,5,2.3,5,5v40
		C534.5,561.2,532.2,563.5,529.5,563.5z"/>
	<path fill="#A14037" d="M749.5,563.5h-90c-2.8,0-5-2.3-5-5v-40c0-2.8,2.3-5,5-5h90c2.8,0,5,2.3,5,5v40
		C754.5,561.2,752.2,563.5,749.5,563.5z"/>
	<path fill="#A14037" d="M584.8,503.5h-90c-2.8,0-5-2.3-5-5v-40c0-2.8,2.3-5,5-5h90c2.8,0,5,2.3,5,5v40
		C589.8,501.2,587.6,503.5,584.8,503.5z"/>
	<path fill="#A14037" d="M694.2,503.5h-90c-2.8,0-5-2.3-5-5v-40c0-2.8,2.3-5,5-5h90c2.8,0,5,2.3,5,5v40
		C699.2,501.2,696.9,503.5,694.2,503.5z"/>
</g>
</svg>
