<?xml version="1.0" encoding="utf-8"?>
<!-- Generator: Adobe Illustrator 18.0.0, SVG Export Plug-In . SVG Version: 6.00 Build 0)  -->
<!DOCTYPE svg PUBLIC "-//W3C//DTD SVG 1.1//EN" "http://www.w3.org/Graphics/SVG/1.1/DTD/svg11.dtd">
<svg version="1.1" id="Layer_1" xmlns="http://www.w3.org/2000/svg" xmlns:xlink="http://www.w3.org/1999/xlink" x="0px" y="0px"
	 viewBox="0 0 120.6 323.3" enable-background="new 0 0 120.6 323.3" xml:space="preserve">
<g>
	<ellipse fill="#A8901A" cx="60.3" cy="313.6" rx="50.3" ry="9.7"/>
	<ellipse fill="#2FBEC2" cx="60.3" cy="310" rx="42" ry="8.6"/>
	<ellipse fill="#2FBEC2" cx="60.3" cy="239" rx="53.3" ry="10.9"/>
	<polygon fill="#2FBEC2" points="18.3,310 102.3,310 113.6,239 7,239 	"/>
	<ellipse fill="#314448" cx="60.3" cy="239.6" rx="47.3" ry="9.1"/>
	<rect x="58" y="59.2" fill="#6D3726" width="4.7" height="178.4"/>
	<path fill="#BDE634" d="M120.6,60.3c-4,21.7-14.3,47.5-35.2,54.8c-13.8,4.9-16.1,5.5-25.1,5.5c-16.6,0-33.7-6.3-42.6-17.7
		S0,76.9,0,60.3c0-10.2,1.3-10,7-28.1S30.4,2,60.3,0s30.1,6,40.9,16C113.1,27,124.6,38.6,120.6,60.3z"/>
	<path fill="none" stroke="#8AAC24" stroke-width="2" stroke-miterlimit="10" d="M59.1,103C44,99.5,28.7,90.4,21.6,76.4
		s-3.3-11.6-3-17.9c0.5-11.7,5.5-23.5,13.8-29.5S51.3,17.5,63,18c7.2,0.3,7,1.2,19.6,5.8s20.5,17.5,20.9,38.6
		c0.4,21.1-5.2,21-12.6,28.3C82.8,98.8,74.3,106.6,59.1,103z"/>
	<path fill="none" stroke="#8AAC24" stroke-width="2" stroke-miterlimit="10" d="M59.6,89.8c-10.4-2.4-20.9-8.7-25.7-18.2
		s-2.3-7.9-2.1-12.3c0.4-8,3.8-16.1,9.5-20.2s12.9-8,21-7.6c4.9,0.2,4.8,0.8,13.4,4s14,12,14.3,26.5s-3.6,14.4-8.6,19.4
		C75.9,86.9,70,92.2,59.6,89.8z"/>
</g>
</svg>
