<?xml version="1.0" encoding="utf-8"?>
<!-- Generator: Adobe Illustrator 18.0.0, SVG Export Plug-In . SVG Version: 6.00 Build 0)  -->
<!DOCTYPE svg PUBLIC "-//W3C//DTD SVG 1.1//EN" "http://www.w3.org/Graphics/SVG/1.1/DTD/svg11.dtd">
<svg version="1.1" id="Layer_1" xmlns="http://www.w3.org/2000/svg" xmlns:xlink="http://www.w3.org/1999/xlink" x="0px" y="0px"
	 viewBox="0 0 44.5 30" enable-background="new 0 0 44.5 30" xml:space="preserve">
<g>
	<path fill="#F6F7F1" d="M25.1,30H0V3.2h25.1c2.4,0,4.3,1.9,4.3,4.3v18.3C29.3,28.1,27.4,30,25.1,30z"/>
	<path fill="#BDE634" d="M25.1,26.9H0V0h25.1c2.4,0,4.3,1.9,4.3,4.3v18.3C29.3,25,27.4,26.9,25.1,26.9z"/>
	<rect x="18.3" y="0" fill="#314448" width="2.2" height="30"/>
	
		<rect x="37.6" y="2.5" transform="matrix(0.9071 0.421 -0.421 0.9071 9.5518 -14.9611)" fill="#314448" width="2.2" height="23.2"/>
	<polygon fill="#3C5458" points="32.8,24.2 34.8,25.1 32.9,26.6 32.9,26.6 	"/>
</g>
</svg>
