<?xml version="1.0" encoding="utf-8"?>
<!-- Generator: Adobe Illustrator 19.0.1, SVG Export Plug-In . SVG Version: 6.00 Build 0)  -->
<svg version="1.1" id="Layer_1" xmlns="http://www.w3.org/2000/svg" xmlns:xlink="http://www.w3.org/1999/xlink" x="0px" y="0px"
	 viewBox="0 0 157 110.9" style="enable-background:new 0 0 157 110.9;" xml:space="preserve">
<style type="text/css">
	.st0{fill:#A8901A;}
	.st1{fill:#A87944;}
	.st2{fill:#D3A96A;}
	.st3{fill:#E8C38B;}
	.st4{fill:#667B80;}
	.st5{fill:#9ABE28;}
	.st6{fill:#BDE634;}
</style>
<g>
	<rect x="15" y="87.9" class="st0" width="127" height="23"/>
	<rect x="20.3" y="13.7" class="st1" width="116.3" height="91.3"/>
	<rect x="20.3" y="36.4" class="st2" width="116.3" height="68.6"/>
	<rect y="13.7" class="st3" width="20.3" height="22.7"/>
	<rect x="20.3" y="2.3" class="st3" width="116.3" height="11.4"/>
	<rect x="86.5" y="72.8" class="st4" width="41" height="25.2"/>
	<rect x="136.7" y="13.7" class="st3" width="20.3" height="22.7"/>
	<path class="st5" d="M113.3,29.2H111c-1,0-2-0.7-2.3-1.7c-0.7-2.4-1.8-5.6-3.3-8.2c-0.5-0.9-0.4-2.1,0.4-2.8l1.4-1.4
		c0.9-0.9,0.9-2.4,0-3.3l-4.6-4.6c-0.9-0.9-2.4-0.9-3.3,0l-1.4,1.4C97,9.3,95.9,9.5,95,8.9c-2.5-1.5-5.3-2.6-8.2-3.4
		c-1-0.3-1.8-1.2-1.8-2.3V2.4C85,1.1,84,0,82.7,0h-6.4c-1.3,0-2.4,1.1-2.4,2.4v0.9c0,1.1-0.7,2-1.8,2.3c-2.9,0.7-5.6,1.9-8.1,3.3
		c-0.9,0.6-2.1,0.4-2.9-0.4l-1.3-1.3c-0.9-0.9-2.4-0.9-3.4,0L52,11.8c-0.9,0.9-0.9,2.4,0,3.3l1.4,1.4c0.7,0.8,0.9,1.9,0.4,2.8
		c-1.4,2.6-2.6,5.8-3.3,8.2c-0.3,1-1.2,1.7-2.3,1.7H47c-1.3,0-2.4,1.1-2.4,2.4v7.8c0,1.3,1.1,2.4,2.4,2.4h1.1c1,0,1.9,0.6,2.2,1.6
		c0.7,2.2,1.8,5,3.2,7.5c0.5,1,0.4,2.2-0.4,2.9l-1.1,1c-1,0.9-1,2.5-0.1,3.4l4.5,4.4c0.9,0.9,2.4,0.9,3.4,0l1.3-1.4
		c0.7-0.8,1.9-1,2.8-0.4c2.5,1.5,5.2,2.6,8.1,3.3c1.1,0.3,1.8,1.2,1.8,2.3v2.3c0,1.3,1.1,2.4,2.4,2.4h6.4c1.3,0,2.4-1.1,2.4-2.4
		v-2.3c0-1.1,0.7-2,1.8-2.3c2.9-0.7,5.7-1.9,8.2-3.4c0.9-0.5,2.1-0.4,2.8,0.4l1.4,1.4c0.9,0.9,2.4,0.9,3.3,0l4.5-4.5
		c1-1,0.9-2.6-0.1-3.5l-0.8-0.7c-0.9-0.7-1.1-2-0.5-3c1.4-2.4,2.5-5.2,3.2-7.4c0.3-1,1.2-1.6,2.2-1.6h2.4c1.3,0,2.4-1.1,2.4-2.4
		v-7.8C115.7,30.3,114.6,29.2,113.3,29.2z M87.7,36.7c-0.7,3.1-3.2,5.6-6.3,6.3c-6.1,1.4-11.5-4-10.1-10.1c0.7-3.1,3.2-5.6,6.3-6.3
		C83.8,25.3,89.1,30.6,87.7,36.7z"/>
	<path class="st6" d="M116.1,29.2h-2.3c-1,0-2-0.7-2.3-1.7c-0.7-2.4-1.8-5.6-3.3-8.2c-0.5-0.9-0.4-2.1,0.4-2.8l1.4-1.4
		c0.9-0.9,0.9-2.4,0-3.3l-4.6-4.6c-0.9-0.9-2.4-0.9-3.3,0l-1.4,1.4c-0.8,0.7-1.9,0.9-2.8,0.4c-2.5-1.5-5.3-2.6-8.2-3.4
		c-1-0.3-1.8-1.2-1.8-2.3V2.4c0-1.3-1.1-2.4-2.4-2.4h-6.4c-1.3,0-2.4,1.1-2.4,2.4v0.9c0,1.1-0.7,2-1.8,2.3c-2.9,0.7-5.6,1.9-8.1,3.3
		c-0.9,0.6-2.1,0.4-2.9-0.4l-1.3-1.3c-0.9-0.9-2.4-0.9-3.4,0l-4.6,4.6c-0.9,0.9-0.9,2.4,0,3.3l1.4,1.4c0.7,0.8,0.9,1.9,0.4,2.8
		c-1.4,2.6-2.6,5.8-3.3,8.2c-0.3,1-1.2,1.7-2.3,1.7h-1.1c-1.3,0-2.4,1.1-2.4,2.4v7.8c0,1.3,1.1,2.4,2.4,2.4H51c1,0,1.9,0.6,2.2,1.6
		c0.7,2.2,1.8,5,3.2,7.5c0.5,1,0.4,2.2-0.4,2.9l-1.1,1c-1,0.9-1,2.5-0.1,3.4l4.5,4.4c0.9,0.9,2.4,0.9,3.4,0l1.3-1.4
		c0.7-0.8,1.9-1,2.8-0.4c2.5,1.5,5.2,2.6,8.1,3.3c1.1,0.3,1.8,1.2,1.8,2.3v2.3c0,1.3,1.1,2.4,2.4,2.4h6.4c1.3,0,2.4-1.1,2.4-2.4
		v-2.3c0-1.1,0.7-2,1.8-2.3c2.9-0.7,5.7-1.9,8.2-3.4c0.9-0.5,2.1-0.4,2.8,0.4l1.4,1.4c0.9,0.9,2.4,0.9,3.3,0l4.5-4.5
		c1-1,0.9-2.6-0.1-3.5l-0.8-0.7c-0.9-0.7-1.1-2-0.5-3c1.4-2.4,2.5-5.2,3.2-7.4c0.3-1,1.2-1.6,2.2-1.6h2.4c1.3,0,2.4-1.1,2.4-2.4
		v-7.8C118.5,30.3,117.4,29.2,116.1,29.2z M90.6,36.7c-0.7,3.1-3.2,5.6-6.3,6.3c-6.1,1.4-11.5-4-10.1-10.1c0.7-3.1,3.2-5.6,6.3-6.3
		C86.6,25.3,91.9,30.6,90.6,36.7z"/>
	<rect x="20.3" y="46.5" class="st2" width="116.3" height="26.2"/>
	<rect x="20.3" y="36.4" class="st3" width="116.3" height="11.4"/>
</g>
</svg>
