<?xml version="1.0" encoding="utf-8"?>
<!-- Generator: Adobe Illustrator 18.0.0, SVG Export Plug-In . SVG Version: 6.00 Build 0)  -->
<!DOCTYPE svg PUBLIC "-//W3C//DTD SVG 1.1//EN" "http://www.w3.org/Graphics/SVG/1.1/DTD/svg11.dtd">
<svg version="1.1" id="Layer_1" xmlns="http://www.w3.org/2000/svg" xmlns:xlink="http://www.w3.org/1999/xlink" x="0px" y="0px"
	 viewBox="0 0 80.5 84.2" enable-background="new 0 0 80.5 84.2" xml:space="preserve">
<g>
	<path fill="#BDE634" d="M76,66.4H4c-2.2,0-4-1.8-4-4V4c0-2.2,1.8-4,4-4h72c2.2,0,4,1.8,4,4v58.4C80,64.6,78.2,66.4,76,66.4z"/>
	<path fill="#CFCFCD" d="M76,84.2H4c-2.2,0-4-1.8-4-4v-13c0-2.2,1.8-4,4-4h72c2.2,0,4,1.8,4,4v13C80,82.4,78.2,84.2,76,84.2z"/>
	<path fill="#9ABE28" d="M76,80.2H4c-2.2,0-4-1.8-4-4v-12c0-2.2,1.8-4,4-4h72c2.2,0,4,1.8,4,4v12C80,78.4,78.2,80.2,76,80.2z"/>
</g>
</svg>
