<?xml version="1.0" encoding="utf-8"?>
<!-- Generator: Adobe Illustrator 18.0.0, SVG Export Plug-In . SVG Version: 6.00 Build 0)  -->
<!DOCTYPE svg PUBLIC "-//W3C//DTD SVG 1.1//EN" "http://www.w3.org/Graphics/SVG/1.1/DTD/svg11.dtd">
<svg version="1.1" id="Layer_1" xmlns="http://www.w3.org/2000/svg" xmlns:xlink="http://www.w3.org/1999/xlink" x="0px" y="0px"
	 viewBox="0 0 168.1 238" enable-background="new 0 0 168.1 238" xml:space="preserve">
<g>
	<polygon opacity="0.2" points="11.2,4 4,11.2 4,238 168.1,238 168.1,4 	"/>
	<polygon fill="#CFCFCD" points="15.2,0 15.2,15 0.2,15 	"/>
	<polygon fill="#CFCFCD" points="15.2,0 15.2,15 0.2,15 	"/>
	<polygon fill="#F6F7F1" points="15.2,0 0,15.2 0,234 164.1,234 164.1,0 	"/>
	<g>
		<g>
			<path fill="#3C5458" d="M16.9,22.5h5.6l9.3,24.8h-5.7l-1.9-5.5h-9.3L13,47.3H7.5L16.9,22.5z M16.4,37.7h6.4l-3.1-9.1h-0.1
				L16.4,37.7z"/>
			<path fill="#3C5458" d="M32.2,22.5h11.7c1.2,0,2.3,0.1,3.2,0.3c1,0.2,1.8,0.5,2.5,1c0.7,0.5,1.2,1.1,1.6,1.9s0.6,1.8,0.6,2.9
				c0,1.3-0.3,2.3-0.9,3.1c-0.6,0.8-1.4,1.5-2.5,2c1.5,0.4,2.7,1.2,3.4,2.3c0.8,1.1,1.1,2.4,1.1,4c0,1.3-0.2,2.3-0.7,3.2
				c-0.5,0.9-1.1,1.7-2,2.2c-0.8,0.6-1.8,1-2.8,1.3c-1.1,0.3-2.1,0.4-3.2,0.4h-12V22.5z M37.6,32.5h5.5c1,0,1.8-0.2,2.4-0.7
				s0.9-1.2,0.9-2.3c0-0.6-0.1-1.1-0.3-1.4c-0.2-0.4-0.5-0.7-0.8-0.9c-0.3-0.2-0.7-0.4-1.2-0.4c-0.5-0.1-0.9-0.1-1.4-0.1h-5.1V32.5z
				 M37.6,43.1h5.8c0.5,0,1-0.1,1.5-0.2c0.5-0.1,0.9-0.3,1.3-0.5s0.7-0.6,0.9-1c0.2-0.4,0.3-0.9,0.3-1.6c0-1.3-0.4-2.2-1.1-2.7
				s-1.7-0.8-2.8-0.8h-5.9V43.1z"/>
			<path fill="#3C5458" d="M71.1,30.8c-0.1-0.6-0.3-1.2-0.6-1.7s-0.7-1-1.2-1.4s-1-0.7-1.6-0.9s-1.3-0.3-1.9-0.3
				c-1.2,0-2.3,0.2-3.1,0.7c-0.9,0.5-1.6,1.1-2.1,1.9c-0.5,0.8-0.9,1.7-1.2,2.7s-0.4,2.1-0.4,3.2c0,1,0.1,2.1,0.4,3
				c0.2,1,0.6,1.9,1.2,2.7c0.5,0.8,1.2,1.4,2.1,1.9c0.9,0.5,1.9,0.7,3.1,0.7c1.7,0,3-0.5,3.9-1.5c0.9-1,1.5-2.4,1.7-4h5.3
				c-0.1,1.6-0.5,3-1.1,4.2c-0.6,1.3-1.3,2.3-2.3,3.2s-2.1,1.6-3.3,2s-2.7,0.7-4.2,0.7c-1.9,0-3.6-0.3-5.1-1
				c-1.5-0.7-2.8-1.6-3.8-2.7c-1-1.2-1.8-2.5-2.4-4.1c-0.6-1.6-0.8-3.2-0.8-5.1c0-1.9,0.3-3.6,0.8-5.2s1.4-3,2.4-4.2
				s2.3-2.1,3.8-2.8c1.5-0.7,3.2-1,5.1-1c1.4,0,2.7,0.2,3.9,0.6c1.2,0.4,2.3,1,3.3,1.7c1,0.8,1.8,1.7,2.4,2.8s1,2.4,1.2,3.8H71.1z"
				/>
			<path fill="#3C5458" d="M78.3,22.5H89c1.6,0,3.1,0.3,4.5,0.8c1.4,0.5,2.6,1.3,3.6,2.3s1.8,2.3,2.4,3.8s0.9,3.3,0.9,5.4
				c0,1.8-0.2,3.5-0.7,5s-1.2,2.8-2.1,4s-2.1,2-3.5,2.6s-3.1,1-4.9,1H78.3V22.5z M83.8,42.7h4.9c0.8,0,1.6-0.1,2.3-0.4
				c0.7-0.3,1.4-0.7,2-1.3c0.6-0.6,1-1.4,1.4-2.3c0.3-0.9,0.5-2.1,0.5-3.5c0-1.3-0.1-2.4-0.4-3.4s-0.6-1.9-1.2-2.6S92,28,91,27.7
				c-0.9-0.4-2-0.6-3.4-0.6h-3.9V42.7z"/>
			<path fill="#3C5458" d="M102.2,22.5h18.5v4.6h-13.1v5.3h12v4.2h-12v6.1H121v4.6h-18.8V22.5z"/>
			<path fill="#3C5458" d="M10.1,55.5h17.4v4.6h-12v5.7h10.4v4.2H15.6v10.2h-5.5V55.5z"/>
			<path fill="#3C5458" d="M46.1,77.5c-1,1.3-2,2.1-3.2,2.6c-1.2,0.5-2.4,0.7-3.6,0.7c-1.9,0-3.6-0.3-5.1-1
				c-1.5-0.7-2.8-1.6-3.8-2.7c-1-1.2-1.8-2.5-2.4-4.1c-0.6-1.6-0.8-3.2-0.8-5.1c0-1.9,0.3-3.6,0.8-5.2s1.4-3,2.4-4.2
				s2.3-2.1,3.8-2.8c1.5-0.7,3.2-1,5.1-1c1.3,0,2.5,0.2,3.7,0.6c1.2,0.4,2.3,0.9,3.2,1.7c1,0.7,1.8,1.7,2.4,2.7s1,2.3,1.1,3.8h-5.2
				c-0.3-1.4-0.9-2.4-1.9-3.1c-0.9-0.7-2-1-3.4-1c-1.2,0-2.3,0.2-3.1,0.7c-0.9,0.5-1.6,1.1-2.1,1.9c-0.5,0.8-0.9,1.7-1.2,2.7
				s-0.4,2.1-0.4,3.2c0,1,0.1,2.1,0.4,3c0.2,1,0.6,1.9,1.2,2.7c0.5,0.8,1.2,1.4,2.1,1.9c0.9,0.5,1.9,0.7,3.1,0.7
				c1.8,0,3.2-0.5,4.2-1.4c1-0.9,1.6-2.2,1.7-4h-5.5v-4.1h10.4v13.4h-3.5L46.1,77.5z"/>
			<path fill="#3C5458" d="M52.8,55.5h5.5V65h10v-9.5h5.5v24.8h-5.5V69.6h-10v10.7h-5.5V55.5z"/>
			<path fill="#3C5458" d="M76.7,55.5h5.5v24.8h-5.5V55.5z"/>
			<path fill="#3C5458" d="M99.3,72.5c0,0.8-0.1,1.7-0.2,2.7S98.5,77,98,77.9c-0.6,0.8-1.4,1.6-2.5,2.1c-1.1,0.6-2.6,0.9-4.4,0.9
				c-1,0-2-0.1-3-0.4c-1-0.3-1.8-0.7-2.6-1.4c-0.8-0.6-1.4-1.4-1.8-2.4s-0.7-2.1-0.7-3.5v-2.2h4.9v1.1c0,0.6,0,1.2,0.1,1.7
				c0.1,0.5,0.3,0.9,0.5,1.3c0.2,0.4,0.5,0.6,1,0.9c0.4,0.2,0.9,0.3,1.6,0.3c0.7,0,1.3-0.1,1.7-0.4s0.7-0.6,0.9-1
				c0.2-0.4,0.3-0.8,0.3-1.3s0.1-0.9,0.1-1.4V55.5h5.5V72.5z"/>
			<path fill="#3C5458" d="M10.1,88.5h5.5v10.3l9.7-10.3h6.8l-9.7,9.8l10.6,15h-6.8l-7.5-11.1l-3.1,3.2v8h-5.5V88.5z"/>
			<path fill="#3C5458" d="M33.4,88.5h5.5v20.2H51v4.6H33.4V88.5z"/>
			<path fill="#3C5458" d="M51.8,88.5h7.7l5.8,17.1h0.1l5.5-17.1h7.7v24.8h-5.1V95.7h-0.1l-6.1,17.6h-4.2L57,95.9h-0.1v17.4h-5.1
				V88.5z"/>
			<path fill="#3C5458" d="M81.6,88.5H87l10.3,16.6h0.1V88.5h5.1v24.8h-5.5L86.7,96.7h-0.1v16.6h-5.1V88.5z"/>
			<path fill="#3C5458" d="M104.3,101c0-1.9,0.3-3.6,0.8-5.2s1.4-3,2.4-4.2c1-1.2,2.3-2.1,3.8-2.8c1.5-0.7,3.2-1,5.1-1
				c1.9,0,3.6,0.3,5.1,1c1.5,0.7,2.8,1.6,3.8,2.8s1.8,2.6,2.4,4.2s0.8,3.3,0.8,5.2c0,1.8-0.3,3.5-0.8,5.1c-0.6,1.6-1.4,2.9-2.4,4.1
				c-1,1.2-2.3,2.1-3.8,2.7c-1.5,0.7-3.2,1-5.1,1c-1.9,0-3.6-0.3-5.1-1c-1.5-0.7-2.8-1.6-3.8-2.7c-1-1.2-1.8-2.5-2.4-4.1
				C104.6,104.5,104.3,102.8,104.3,101z M109.8,101c0,1,0.1,2.1,0.4,3c0.2,1,0.6,1.9,1.2,2.7s1.2,1.4,2.1,1.9s1.9,0.7,3.1,0.7
				c1.2,0,2.3-0.2,3.1-0.7s1.6-1.1,2.1-1.9s0.9-1.7,1.2-2.7c0.2-1,0.4-2,0.4-3c0-1.1-0.1-2.1-0.4-3.2s-0.6-1.9-1.2-2.7
				s-1.2-1.4-2.1-1.9s-1.9-0.7-3.1-0.7c-1.2,0-2.3,0.2-3.1,0.7s-1.6,1.1-2.1,1.9s-0.9,1.7-1.2,2.7S109.8,99.9,109.8,101z"/>
			<path fill="#3C5458" d="M10.1,121.5h11.2c1.6,0,2.9,0.2,4,0.7s2,1,2.7,1.8c0.7,0.7,1.2,1.6,1.5,2.5c0.3,0.9,0.5,1.9,0.5,3
				c0,1-0.2,2-0.5,2.9s-0.8,1.8-1.5,2.6c-0.7,0.7-1.6,1.3-2.7,1.8c-1.1,0.5-2.4,0.7-4,0.7h-5.7v8.9h-5.5V121.5z M15.6,133.2h4.2
				c0.6,0,1.2,0,1.8-0.1c0.6-0.1,1.1-0.3,1.5-0.5c0.4-0.3,0.8-0.6,1.1-1.1c0.3-0.5,0.4-1.1,0.4-1.9s-0.1-1.4-0.4-1.9
				c-0.3-0.5-0.6-0.9-1.1-1.1c-0.4-0.3-1-0.4-1.5-0.5c-0.6-0.1-1.2-0.1-1.8-0.1h-4.2V133.2z"/>
			<path fill="#3C5458" d="M51.9,148.6l-3.5-3.2c-1.6,0.9-3.6,1.4-6,1.4c-1.9,0-3.6-0.3-5.1-1c-1.5-0.7-2.8-1.6-3.8-2.7
				c-1-1.2-1.8-2.5-2.4-4.1c-0.6-1.6-0.8-3.2-0.8-5.1c0-1.9,0.3-3.6,0.8-5.2s1.4-3,2.4-4.2c1-1.2,2.3-2.1,3.8-2.8
				c1.5-0.7,3.2-1,5.1-1c1.9,0,3.6,0.3,5.1,1c1.5,0.7,2.8,1.6,3.8,2.8s1.8,2.6,2.4,4.2s0.8,3.3,0.8,5.2c0,1.8-0.3,3.5-0.8,5
				c-0.6,1.6-1.4,2.9-2.4,4.1l3.1,2.8L51.9,148.6z M44.8,137.1l2.8,2.6c0.5-0.6,0.8-1.4,1.1-2.3c0.3-0.9,0.4-2,0.4-3.4
				c0-1.1-0.1-2.1-0.4-3.2s-0.6-1.9-1.2-2.7s-1.2-1.4-2.1-1.9s-1.9-0.7-3.1-0.7c-1.2,0-2.3,0.2-3.1,0.7s-1.6,1.1-2.1,1.9
				s-0.9,1.7-1.2,2.7s-0.4,2.1-0.4,3.2c0,1,0.1,2.1,0.4,3c0.2,1,0.6,1.9,1.2,2.7s1.2,1.4,2.1,1.9s1.9,0.7,3.1,0.7c0.4,0,0.8,0,1.3,0
				c0.4,0,0.8-0.1,0.9-0.3l-2.3-2.1L44.8,137.1z"/>
			<path fill="#3C5458" d="M56.6,121.5H70c1.1,0,2.1,0.2,3,0.5c0.9,0.4,1.7,0.9,2.3,1.5s1.1,1.3,1.5,2.2c0.3,0.8,0.5,1.7,0.5,2.7
				c0,1.5-0.3,2.7-0.9,3.8c-0.6,1.1-1.6,1.9-3,2.4v0.1c0.7,0.2,1.2,0.5,1.7,0.9c0.4,0.4,0.8,0.8,1.1,1.4c0.3,0.5,0.5,1.1,0.6,1.7
				c0.1,0.6,0.2,1.3,0.3,1.9c0,0.4,0,0.9,0.1,1.4c0,0.5,0.1,1.1,0.1,1.6s0.2,1.1,0.3,1.6c0.1,0.5,0.3,0.9,0.6,1.3h-5.5
				c-0.3-0.8-0.5-1.7-0.6-2.8c-0.1-1.1-0.2-2.1-0.3-3.1c-0.2-1.3-0.6-2.2-1.2-2.8c-0.6-0.6-1.6-0.9-3-0.9h-5.5v9.7h-5.5V121.5z
				 M62.1,132.7h6c1.3,0,2.2-0.3,2.8-0.8s0.9-1.5,0.9-2.7c0-1.2-0.3-2.1-0.9-2.6s-1.6-0.8-2.8-0.8h-6V132.7z"/>
			<path fill="#3C5458" d="M83.5,138.1c0,0.8,0.2,1.5,0.5,2.1c0.3,0.6,0.7,1,1.2,1.4c0.5,0.4,1.1,0.6,1.8,0.8
				c0.7,0.2,1.4,0.3,2.1,0.3c0.5,0,1,0,1.6-0.1s1.1-0.2,1.6-0.5s0.9-0.5,1.2-1c0.3-0.4,0.5-0.9,0.5-1.5c0-0.7-0.2-1.2-0.6-1.6
				c-0.4-0.4-1-0.8-1.7-1c-0.7-0.3-1.5-0.5-2.4-0.7c-0.9-0.2-1.8-0.4-2.7-0.7c-0.9-0.2-1.8-0.5-2.7-0.9s-1.7-0.8-2.4-1.3
				c-0.7-0.5-1.3-1.2-1.7-2c-0.4-0.8-0.6-1.8-0.6-2.9c0-1.3,0.3-2.4,0.8-3.3s1.3-1.7,2.1-2.3s1.9-1.1,3-1.4s2.2-0.5,3.3-0.5
				c1.3,0,2.5,0.1,3.7,0.4c1.2,0.3,2.3,0.8,3.2,1.4c0.9,0.6,1.7,1.5,2.2,2.5c0.5,1,0.8,2.2,0.8,3.7H93c0-0.7-0.2-1.4-0.5-1.8
				c-0.3-0.5-0.6-0.9-1.1-1.1c-0.4-0.3-0.9-0.5-1.5-0.6c-0.6-0.1-1.2-0.2-1.9-0.2c-0.4,0-0.9,0-1.3,0.1c-0.4,0.1-0.8,0.3-1.2,0.5
				c-0.4,0.2-0.7,0.5-0.9,0.9c-0.2,0.3-0.3,0.8-0.3,1.3c0,0.5,0.1,0.9,0.3,1.2c0.2,0.3,0.5,0.6,1.1,0.8c0.5,0.3,1.3,0.5,2.3,0.8
				s2.2,0.6,3.8,1c0.5,0.1,1.1,0.3,1.9,0.5c0.8,0.2,1.6,0.6,2.4,1.2c0.8,0.5,1.5,1.2,2.1,2.1s0.9,2,0.9,3.4c0,1.1-0.2,2.2-0.7,3.2
				c-0.4,1-1.1,1.8-2,2.5s-1.9,1.3-3.2,1.6c-1.3,0.4-2.8,0.6-4.5,0.6c-1.4,0-2.7-0.2-4-0.5c-1.3-0.3-2.4-0.9-3.4-1.6
				c-1-0.7-1.8-1.6-2.3-2.7c-0.6-1.1-0.9-2.4-0.8-4H83.5z"/>
			<path fill="#3C5458" d="M106,126.1h-7.4v-4.6h20.3v4.6h-7.4v20.2H106V126.1z"/>
			<path fill="#3C5458" d="M31.2,169.9c0,3.4-0.9,5.9-2.8,7.5c-1.9,1.6-4.5,2.4-7.8,2.4c-3.4,0-6-0.8-7.8-2.4
				c-1.8-1.6-2.8-4.1-2.8-7.5v-15.4h5.5v15.4c0,0.7,0.1,1.3,0.2,2s0.4,1.2,0.7,1.7c0.4,0.5,0.9,0.9,1.5,1.2c0.7,0.3,1.5,0.5,2.7,0.5
				c1.9,0,3.3-0.4,4-1.3s1.1-2.2,1.1-4.1v-15.4h5.5V169.9z"/>
			<path fill="#3C5458" d="M45.7,179.3h-6.1l-8-24.8h5.6l5.5,17.4h0.1l5.6-17.4h5.6L45.7,179.3z"/>
			<path fill="#3C5458" d="M79.1,179.3h-5.4l-4.2-16.9h-0.1l-4.1,16.9h-5.5l-6.6-24.8h5.5l3.9,16.9h0.1l4.3-16.9h5.1l4.2,17.1h0.1
				l4.1-17.1h5.3L79.1,179.3z"/>
			<path fill="#3C5458" d="M93.5,166.3l-8-11.8h6.3l4.9,7.9l5-7.9h6l-8,11.8l8.6,13h-6.5l-5.4-8.6l-5.5,8.6h-6.1L93.5,166.3z"/>
			<path fill="#3C5458" d="M116.3,169.7l-9.1-15.1h6.1l5.8,9.8l5.8-9.8h6.1l-9.2,15.3v9.5h-5.5V169.7z"/>
			<path fill="#3C5458" d="M130,175l13.3-15.9h-12.3v-4.6h19.5v4.3l-13.3,15.9h13.6v4.6H130V175z"/>
		</g>
	</g>
	<g>
		<g>
			<polygon fill="#3C5458" points="113.1,188 132.5,226 134.9,226 115.5,188 			"/>
			<polygon fill="#3C5458" points="105.1,188 124.5,226 126.9,226 107.5,188 			"/>
			<polygon fill="#3C5458" points="97.1,188 116.5,226 118.9,226 99.5,188 			"/>
			<polygon fill="#3C5458" points="89.1,188 108.5,226 110.9,226 91.5,188 			"/>
			<polygon fill="#3C5458" points="81.1,188 100.5,226 102.9,226 83.5,188 			"/>
			<polygon fill="#3C5458" points="73.1,188 92.5,226 94.9,226 75.5,188 			"/>
			<polygon fill="#3C5458" points="65.1,188 84.5,226 86.9,226 67.5,188 			"/>
			<polygon fill="#3C5458" points="57.1,188 76.5,226 78.9,226 59.5,188 			"/>
			<polygon fill="#3C5458" points="49,188 68.5,226 70.9,226 51.5,188 			"/>
			<polygon fill="#3C5458" points="41,188 60.5,226 62.9,226 43.4,188 			"/>
			<polygon fill="#3C5458" points="33,188 52.5,226 54.9,226 35.4,188 			"/>
			<polygon fill="#3C5458" points="25,188 44.5,226 46.9,226 27.4,188 			"/>
			<polygon fill="#3C5458" points="17,188 36.5,226 38.9,226 19.4,188 			"/>
			<polygon fill="#3C5458" points="9,188 28.5,226 30.9,226 11.4,188 			"/>
			<polygon fill="#3C5458" points="129.1,188 148.5,226 150.9,226 131.5,188 			"/>
			<polygon fill="#3C5458" points="121.1,188 140.5,226 142.9,226 123.5,188 			"/>
			<polygon fill="#3C5458" points="153.1,200.1 147.5,188 145.1,188 153.1,204.8 			"/>
			<polygon fill="#3C5458" points="153.1,215.8 139.5,188 137.1,188 153.1,220.5 			"/>
			<polygon fill="#3C5458" points="10.1,201.5 10.1,206.2 20.5,226 22.9,226 			"/>
			<polygon fill="#3C5458" points="10.1,217.1 10.1,221.8 12.5,226 14.9,226 			"/>
		</g>
	</g>
</g>
</svg>
