<?xml version="1.0" encoding="utf-8"?>
<!-- Generator: Adobe Illustrator 18.0.0, SVG Export Plug-In . SVG Version: 6.00 Build 0)  -->
<!DOCTYPE svg PUBLIC "-//W3C//DTD SVG 1.1//EN" "http://www.w3.org/Graphics/SVG/1.1/DTD/svg11.dtd">
<svg version="1.1" id="Layer_1" xmlns="http://www.w3.org/2000/svg" xmlns:xlink="http://www.w3.org/1999/xlink" x="0px" y="0px"
	 viewBox="0 0 140.7 356" enable-background="new 0 0 140.7 356" xml:space="preserve">
<g>
	<ellipse fill="#314448" cx="70.8" cy="342" rx="58" ry="14"/>
	<ellipse fill="#314448" cx="70.8" cy="278" rx="58" ry="14"/>
	<rect x="12.8" y="278" fill="#314448" width="116" height="64"/>
	<ellipse fill="#C04B41" cx="70.8" cy="269" rx="51.3" ry="12.4"/>
	<ellipse fill="#C04B41" cx="70.8" cy="276" rx="51.3" ry="12.4"/>
	<rect x="19.5" y="33.7" fill="#C04B41" width="102.7" height="242.3"/>
	<rect x="19.5" y="33.7" fill="#913830" width="102.7" height="9.8"/>
	<polygon fill="#C04B41" points="127.7,33.7 14,33.7 0,25 141.7,25 	"/>
	<rect x="0" y="16.3" fill="#C04B41" width="141.7" height="8.7"/>
	<polygon fill="#C04B41" points="141.7,16.3 0,16.3 54,1 87.7,1 	"/>
	<rect x="41.1" y="63" fill="#3C5458" width="59.5" height="17"/>
	<rect x="41.1" y="96" fill="#C4AC24" width="59.5" height="69.5"/>
	<rect x="45.5" y="100.4" fill="#FFCE41" width="54.8" height="65.5"/>
	<rect x="41.1" y="170" fill="#913830" width="59.5" height="4.8"/>
</g>
</svg>
