<?xml version="1.0" encoding="utf-8"?>
<!-- Generator: Adobe Illustrator 18.0.0, SVG Export Plug-In . SVG Version: 6.00 Build 0)  -->
<!DOCTYPE svg PUBLIC "-//W3C//DTD SVG 1.1//EN" "http://www.w3.org/Graphics/SVG/1.1/DTD/svg11.dtd">
<svg version="1.1" id="Layer_1" xmlns="http://www.w3.org/2000/svg" xmlns:xlink="http://www.w3.org/1999/xlink" x="0px" y="0px"
	 viewBox="0 0 170.5 171" enable-background="new 0 0 170.5 171" xml:space="preserve">
<g>
	<rect x="4.5" y="4.5" opacity="0.2" width="166" height="166.5"/>
	<rect x="0" y="0" fill="#CFCFCD" width="166" height="166.5"/>
	<path fill="#667B80" d="M135.4,104.2H45.5c-2.8-3-7.1-5.4-11.8-5.4c-8.5,0-15.4,6.9-15.4,15.5s6.9,15.5,15.4,15.5
		c4.7,0,9-2.1,11.8-5.5h89.9c4.2,0,7.7-3.4,7.7-7.6v-4.7C143.2,107.7,139.6,104.2,135.4,104.2z"/>
	<path fill="#969FA8" d="M133.4,122.2H39.3c-4.2,0-7.6-3.4-7.6-7.6v-4.7c0-4.2,3.4-7.6,7.6-7.6h94.1c4.2,0,7.6,3.4,7.6,7.6v4.7
		C141,118.8,137.6,122.2,133.4,122.2z"/>
	<path fill="#667B80" d="M31.3,109.9v4.7c0,4.2,3.8,7.9,8.1,7.9h11.2c2.3-3,3.7-6.2,3.7-10s-1.4-7-3.7-10H39.3
		C35.1,102.5,31.3,105.7,31.3,109.9z"/>
	<circle fill="#969FA8" cx="31.7" cy="112.2" r="15.4"/>
	<circle fill="#CFCFCD" cx="31.7" cy="112.2" r="8.1"/>
</g>
</svg>
