<?xml version="1.0" encoding="utf-8"?>
<!-- Generator: Adobe Illustrator 18.0.0, SVG Export Plug-In . SVG Version: 6.00 Build 0)  -->
<!DOCTYPE svg PUBLIC "-//W3C//DTD SVG 1.1//EN" "http://www.w3.org/Graphics/SVG/1.1/DTD/svg11.dtd">
<svg version="1.1" id="Layer_1" xmlns="http://www.w3.org/2000/svg" xmlns:xlink="http://www.w3.org/1999/xlink" x="0px" y="0px"
	 viewBox="0 0 55.8 23.9" enable-background="new 0 0 55.8 23.9" xml:space="preserve">
<g>
	<g opacity="0.2">
		<g>
			<g>
				<polygon points="44.1,4.7 49.6,2.8 55.1,0.8 49,1.2 				"/>
			</g>
			<g>
				<path d="M23,12.1l-0.7-2c-0.2-0.7-1-1.1-1.7-0.8L20,9.5c-0.7,0.2-1.1,1-0.8,1.7l0,0c-0.5-0.1-1-0.1-1.5,0.1L2,16.9
					c-1.6,0.6-2.4,2.3-1.8,3.9L0.6,22c0.6,1.6,2.3,2.4,3.9,1.8l15.6-5.5c0.5-0.2,0.9-0.5,1.2-0.9l0,0c0.2,0.7,1,1.1,1.7,0.8l0.6-0.2
					c0.7-0.2,1.1-1,0.8-1.7l-0.7-2L55.8,3l-0.8-2.2L23,12.1z"/>
			</g>
			<g>
				<polygon points="50.4,5 44.9,6.9 50.9,6.5 55.8,3 				"/>
			</g>
		</g>
	</g>
	<g>
		
			<rect x="6" y="8.2" transform="matrix(0.9429 -0.3331 0.3331 0.9429 -1.3349 11.0171)" fill="#667B80" width="50.9" height="2.3"/>
		<polygon fill="#667B80" points="55.1,-0.2 49,0.2 49.6,1.8 55.1,-0.2 		"/>
		<polygon fill="#667B80" points="44.1,3.7 49,0.2 49.6,1.8 44.1,3.7 		"/>
		
			<rect x="6" y="8.2" transform="matrix(0.9429 -0.3331 0.3331 0.9429 -1.3349 11.0171)" fill="#667B80" width="50.9" height="2.3"/>
		<polygon fill="#667B80" points="55.8,2 50.9,5.5 50.4,4 55.8,2 		"/>
		<polygon fill="#667B80" points="44.9,5.9 50.9,5.5 50.4,4 44.9,5.9 		"/>
		<polyline fill="#667B80" points="55.1,-0.2 55.1,-0.2 49,0.2 		"/>
		<path fill="#FF7B46" d="M23.7,17.1l-0.6,0.2c-0.7,0.2-1.5-0.1-1.7-0.8l-2.2-6.3c-0.2-0.7,0.1-1.5,0.8-1.7l0.6-0.2
			C21.3,8,22,8.4,22.3,9.1l2.2,6.3C24.8,16.1,24.4,16.9,23.7,17.1z"/>
		<path fill="#FF7B46" d="M4.5,22.9l15.6-5.5c1.6-0.6,2.4-2.3,1.8-3.9l-0.5-1.3c-0.6-1.6-2.3-2.4-3.9-1.8L2,15.9
			c-1.6,0.6-2.4,2.3-1.8,3.9L0.6,21C1.2,22.6,2.9,23.4,4.5,22.9z"/>
		<g>
			<path fill="#D36942" d="M3.5,18.8L17.1,14c0.4-0.1,0.6-0.6,0.5-1l-0.1-0.3c-0.1-0.4-0.6-0.6-1-0.5L2.8,16.9
				c-0.4,0.1-0.6,0.6-0.5,1l0.1,0.3C2.6,18.7,3.1,18.9,3.5,18.8z"/>
			<path fill="#D36942" d="M4.5,21.6l13.6-4.8c0.4-0.1,0.6-0.6,0.5-1l-0.1-0.3c-0.1-0.4-0.6-0.6-1-0.5L3.8,19.7
				c-0.4,0.1-0.6,0.6-0.5,1l0.1,0.3C3.6,21.5,4,21.7,4.5,21.6z"/>
		</g>
	</g>
</g>
</svg>
