<?xml version="1.0" encoding="utf-8"?>
<!-- Generator: Adobe Illustrator 18.0.0, SVG Export Plug-In . SVG Version: 6.00 Build 0)  -->
<!DOCTYPE svg PUBLIC "-//W3C//DTD SVG 1.1//EN" "http://www.w3.org/Graphics/SVG/1.1/DTD/svg11.dtd">
<svg version="1.1" id="Layer_1" xmlns="http://www.w3.org/2000/svg" xmlns:xlink="http://www.w3.org/1999/xlink" x="0px" y="0px"
	 viewBox="0 0 1170 659.2" enable-background="new 0 0 1170 659.2" xml:space="preserve">
<rect x="0" y="0" fill="#CFCFCD" width="1170" height="659.2"/>
<rect x="0" y="599.2" fill="#667B80" width="1170" height="60"/>
<rect x="0" y="544.3" fill="#667B80" width="65.7" height="60"/>
<rect x="0" y="5.6" fill="#667B80" width="31.4" height="653.6"/>
<rect x="0" y="424.8" fill="#667B80" width="65.7" height="60"/>
<rect x="0" y="364.8" fill="#667B80" width="31.4" height="60"/>
<rect x="0" y="305.3" fill="#667B80" width="65.7" height="60"/>
<rect x="0" y="245.3" fill="#667B80" width="31.4" height="60"/>
<rect x="0" y="185.8" fill="#667B80" width="65.7" height="60"/>
<rect x="0" y="125.8" fill="#667B80" width="31.4" height="60"/>
<rect x="0" y="66.3" fill="#667B80" width="65.7" height="60"/>
<rect x="0" y="0" fill="#667B80" width="31.4" height="120.6"/>
<rect x="1104.3" y="544.3" fill="#667B80" width="65.7" height="60"/>
<rect x="1138.6" y="11" fill="#667B80" width="31.4" height="636.3"/>
<rect x="1104.3" y="424.8" fill="#667B80" width="65.7" height="60"/>
<rect x="1138.6" y="364.8" fill="#667B80" width="31.4" height="60"/>
<rect x="1104.3" y="305.3" fill="#667B80" width="65.7" height="60"/>
<rect x="1138.6" y="245.3" fill="#667B80" width="31.4" height="60"/>
<rect x="1104.3" y="185.8" fill="#667B80" width="65.7" height="60"/>
<rect x="1138.6" y="125.8" fill="#667B80" width="31.4" height="60"/>
<rect x="1104.3" y="66.3" fill="#667B80" width="65.7" height="60"/>
<rect x="1138.6" y="0" fill="#667B80" width="31.4" height="120"/>
</svg>
