<?xml version="1.0" encoding="utf-8"?>
<!-- Generator: Adobe Illustrator 18.0.0, SVG Export Plug-In . SVG Version: 6.00 Build 0)  -->
<!DOCTYPE svg PUBLIC "-//W3C//DTD SVG 1.1//EN" "http://www.w3.org/Graphics/SVG/1.1/DTD/svg11.dtd">
<svg version="1.1" id="Layer_1" xmlns="http://www.w3.org/2000/svg" xmlns:xlink="http://www.w3.org/1999/xlink" x="0px" y="0px"
	 viewBox="0 0 621.4 310.5" enable-background="new 0 0 621.4 310.5" xml:space="preserve">
<g>
	<g>
		<rect x="233.4" y="286.6" fill="#969FA8" width="164.9" height="7.6"/>
		<ellipse fill="#969FA8" cx="315.8" cy="294.2" rx="82.4" ry="16.3"/>
		<ellipse fill="#CFCFCD" cx="315.8" cy="286.6" rx="82.4" ry="16.3"/>
		<ellipse fill="#969FA8" cx="315.8" cy="286.6" rx="13.7" ry="2.7"/>
		<rect x="302.1" y="131.5" fill="#969FA8" width="27.5" height="155.1"/>
		<ellipse fill="#A14037" cx="315.8" cy="139.1" rx="129.5" ry="25.5"/>
		<rect x="186.4" y="131.5" fill="#A14037" width="258.9" height="7.6"/>
		<ellipse fill="#C04B41" cx="315.8" cy="131.5" rx="129.5" ry="25.5"/>
	</g>
</g>
<g>
	<ellipse opacity="0.2" cx="90.1" cy="270" rx="90.1" ry="17.6"/>
	<rect x="13.5" y="243.5" fill="#A14037" width="14.5" height="29.1"/>
	<rect x="149.2" y="243.5" fill="#A14037" width="14.5" height="29.1"/>
	<path fill="#3C5458" d="M39,236.9l-7,0.7c-7.9,0.8-15-4.9-15.8-12.8L4,104.6c-0.8-7.9,4.9-15,12.8-15.8l7-0.7
		c7.9-0.8,15,4.9,15.8,12.8l12.2,120.1C52.7,229,46.9,236.1,39,236.9z"/>
	<path fill="#3C5458" d="M20.7,204V197c0-7.9,6.4-14.4,14.4-14.4h120.8c7.9,0,14.4,6.4,14.4,14.4v7.1c0,7.9-6.4,14.4-14.4,14.4H35.1
		C27.1,218.4,20.7,212,20.7,204z"/>
	<path fill="#314448" d="M149.3,257.3H27.5c-7.9,0-14.4-6.4-14.4-14.4V134.2c0-7.9,6.4-14.4,14.4-14.4h121.8
		c7.9,0,14.4,6.4,14.4,14.4V243C163.6,250.9,157.2,257.3,149.3,257.3z"/>
</g>
<g>
	<ellipse opacity="0.2" cx="531.3" cy="270" rx="90.1" ry="17.6"/>
	<rect x="593.4" y="243.5" fill="#A14037" width="14.5" height="29.1"/>
	<rect x="457.7" y="243.5" fill="#A14037" width="14.5" height="29.1"/>
	<path fill="#3C5458" d="M582.3,236.9l7,0.7c7.9,0.8,15-4.9,15.8-12.8l12.2-120.1c0.8-7.9-4.9-15-12.8-15.8l-7-0.7
		c-7.9-0.8-15,4.9-15.8,12.8l-12.2,120.1C568.7,229,574.4,236.1,582.3,236.9z"/>
	<path fill="#3C5458" d="M600.7,204V197c0-7.9-6.4-14.4-14.4-14.4H465.5c-7.9,0-14.4,6.4-14.4,14.4v7.1c0,7.9,6.4,14.4,14.4,14.4
		h120.8C594.2,218.4,600.7,212,600.7,204z"/>
	<path fill="#314448" d="M472.1,257.3h121.8c7.9,0,14.4-6.4,14.4-14.4V134.2c0-7.9-6.4-14.4-14.4-14.4H472.1
		c-7.9,0-14.4,6.4-14.4,14.4V243C457.7,250.9,464.2,257.3,472.1,257.3z"/>
</g>
</svg>
