<?xml version="1.0" encoding="utf-8"?>
<!-- Generator: Adobe Illustrator 18.0.0, SVG Export Plug-In . SVG Version: 6.00 Build 0)  -->
<!DOCTYPE svg PUBLIC "-//W3C//DTD SVG 1.1//EN" "http://www.w3.org/Graphics/SVG/1.1/DTD/svg11.dtd">
<svg version="1.1" id="Layer_1" xmlns="http://www.w3.org/2000/svg" xmlns:xlink="http://www.w3.org/1999/xlink" x="0px" y="0px"
	 viewBox="0 0 164.1 234" enable-background="new 0 0 164.1 234" xml:space="preserve">
<g>
	<rect x="0" y="112.3" fill="#3C5458" width="164.1" height="121.6"/>
	<rect x="8" y="121" fill="#96D6D3" width="148.1" height="103.6"/>
	<g>
		<rect x="0" y="0" fill="#3C5458" width="164.1" height="121.6"/>
		<rect x="8" y="8.7" fill="#BCE6E5" width="148.1" height="103.6"/>
		<polygon opacity="0.5" fill="#F6F7F1" points="138.9,112.3 8,112.3 8,8.7 55.9,8.7 		"/>
	</g>
	<path fill="#C04B41" d="M88.5,184.7l-9,0h-9c0,1.4,0.1,19.2,4,39.9h18.4C89.6,208.6,88.6,192.9,88.5,184.7z"/>
	<path fill="#0F7070" d="M89,195.7l-18,1.2c0.5,7.6,1.5,17.3,3.5,27.7h18.3C90.5,213.2,89.5,202.4,89,195.7z"/>
	<g>
		<path fill="#C04B41" d="M99.2,205.6c-8.6,0-15.1-1.3-15.6-1.5l1.2-5.9c0.3,0.1,26.3,5.4,42.3-6.1c6.9-5,11-12.7,12.1-22.7l6,0.7
			c-1.3,11.8-6.2,20.9-14.6,26.9C121,203.9,108.8,205.6,99.2,205.6z"/>
	</g>
	<g>
		<path fill="#C04B41" d="M68.6,203.9c-8,0-23.5-1.5-35.1-11.8c-9.5-8.4-14.3-20.8-14.3-36.9h6c0,14.2,4.1,25.1,12.2,32.4
			c14,12.5,35.5,10.2,35.7,10.1l0.7,6C73.6,203.7,71.6,203.9,68.6,203.9z"/>
	</g>
	<g>
		<path fill="#0F7070" d="M99.3,205.6c-8.6,0-15.1-1.3-15.7-1.5l1.2-5.9c0.3,0.1,33.6,6.9,47.9-11.6l4.7,3.7
			C127.7,202.9,111.4,205.6,99.3,205.6z"/>
	</g>
	<g>
		<path fill="#0F7070" d="M69.1,203.9c-11,0-37.7-2.8-46.8-28.8l5.7-2c9.9,28.4,44.9,24.7,45.2,24.6l0.7,6
			C73.8,203.7,72,203.9,69.1,203.9z"/>
	</g>
	<g>
		<circle fill="#C04B41" cx="22.2" cy="150.2" r="6.6"/>
	</g>
	<g>
		<circle fill="#C04B41" cx="142.2" cy="168.3" r="6.6"/>
	</g>
	<g>
		<circle fill="#C04B41" cx="79.4" cy="169.9" r="19.5"/>
	</g>
	<g>
		<path fill="#913830" d="M65.2,171.9c0-10.6,7.7-19.4,17.8-21.2c-1.2-0.2-2.4-0.3-3.6-0.3c-10.8,0-19.5,8.7-19.5,19.5
			c0,8.4,5.4,15.6,12.8,18.3C68.1,184.3,65.2,178.4,65.2,171.9z"/>
	</g>
	<g>
		<path fill="#FFFFFF" d="M79.5,171.6c0,0-2.2-9.3-9.4-9c-2.8,1.7-4.3,6.7-0.8,9.8C72.8,175.5,77.4,174,79.5,171.6z"/>
		<path fill="#435C63" d="M73.8,175.1C73.8,175.1,73.8,175.1,73.8,175.1c-1.9,0-3.7-0.7-5.2-2c-1.7-1.5-2.6-3.6-2.3-5.9
			c0.2-2.3,1.5-4.5,3.3-5.6c0.1-0.1,0.3-0.1,0.5-0.1c8-0.4,10.3,9.4,10.4,9.8c0.1,0.3,0,0.6-0.2,0.9C78.6,174,76.2,175.1,73.8,175.1
			z M70.4,164c-1.1,0-2,2.1-2.1,3.7c-0.1,1.1,0.2,2.7,1.8,4.1c1.1,1,2,1.5,4,1.5v0c1,0,3.2-0.5,4.4-1.7C78,169.7,75.6,164,70.4,164
			C70.4,164,70.4,164,70.4,164z"/>
	</g>
	<g>
		<path fill="#FFFFFF" d="M84.7,171.5c0,0,2.1-9.2,9.3-8.9c2.7,1.6,4.3,6.6,0.8,9.7C91.3,175.4,86.8,173.9,84.7,171.5z"/>
		<path fill="#435C63" d="M90.3,175.1c-2.4,0-4.8-1.1-6.4-2.9c-0.2-0.2-0.3-0.6-0.2-0.9c0.1-0.4,2.4-10,10.3-9.7
			c0.2,0,0.3,0.1,0.5,0.1c1.8,1.1,3.1,3.2,3.3,5.5c0.2,2.2-0.6,4.3-2.3,5.8C94,174.4,92.2,175.1,90.3,175.1z M85.8,171.4
			c1.2,1.1,2.9,1.7,4.5,1.7c1.4,0,2.7-0.6,3.8-1.5c1.6-1.4,1.8-2.8,1.7-4c-0.1-1.5-1-3.7-2.1-3.7c0,0,0,0,0,0
			C88.5,164,86.3,169.6,85.8,171.4z"/>
	</g>
	<path fill="#C04B41" d="M83.8,184.7l-8.5,0c0,1.4,0.1,19.4,4,39.9H88C83.9,203.9,83.8,185.1,83.8,184.7z"/>
</g>
</svg>
